<svg width="159" height="152" viewBox="0 0 159 152" fill="none" xmlns="http://www.w3.org/2000/svg">
<rect width="159" height="152" rx="30" fill="#FF5959"/>
<path d="M26.4623 39.352L32.5103 37.768V58H37.5143V32.368L26.4623 34.708V39.352ZM48.0338 45.4C48.0338 44.128 48.1538 42.976 48.3938 41.944C48.6338 40.888 48.9818 39.988 49.4378 39.244C49.8938 38.476 50.4338 37.888 51.0578 37.48C51.6818 37.072 52.3778 36.868 53.1458 36.868C53.9378 36.868 54.6458 37.072 55.2698 37.48C55.8938 37.888 56.4338 38.476 56.8898 39.244C57.3458 39.988 57.6938 40.888 57.9338 41.944C58.1738 42.976 58.2938 44.128 58.2938 45.4C58.2938 46.672 58.1738 47.836 57.9338 48.892C57.6938 49.924 57.3458 50.824 56.8898 51.592C56.4338 52.336 55.8938 52.912 55.2698 53.32C54.6458 53.728 53.9378 53.932 53.1458 53.932C52.3778 53.932 51.6818 53.728 51.0578 53.32C50.4338 52.912 49.8938 52.336 49.4378 51.592C48.9818 50.824 48.6338 49.924 48.3938 48.892C48.1538 47.836 48.0338 46.672 48.0338 45.4ZM43.0298 45.4C43.0298 48.064 43.4498 50.368 44.2898 52.312C45.1538 54.256 46.3418 55.768 47.8538 56.848C49.3898 57.904 51.1538 58.432 53.1458 58.432C55.2098 58.432 56.9978 57.904 58.5098 56.848C60.0218 55.768 61.1978 54.256 62.0378 52.312C62.8778 50.368 63.2978 48.064 63.2978 45.4C63.2978 42.736 62.8778 40.432 62.0378 38.488C61.1978 36.544 60.0218 35.044 58.5098 33.988C56.9978 32.908 55.2098 32.368 53.1458 32.368C51.1538 32.368 49.3898 32.908 47.8538 33.988C46.3418 35.044 45.1538 36.544 44.2898 38.488C43.4498 40.432 43.0298 42.736 43.0298 45.4ZM78.9588 50.64H71.6628V58H73.9988V52.736H76.6388V58H78.9588V50.64ZM80.4339 54.32C80.4339 55.088 80.6152 55.76 80.9779 56.336C81.3405 56.912 81.8419 57.36 82.4819 57.68C83.1219 58 83.8419 58.16 84.6419 58.16C85.4419 58.16 86.1565 58 86.7859 57.68C87.4259 57.36 87.9272 56.912 88.2899 56.336C88.6632 55.76 88.8499 55.088 88.8499 54.32C88.8499 53.5413 88.6632 52.864 88.2899 52.288C87.9272 51.712 87.4259 51.264 86.7859 50.944C86.1565 50.624 85.4419 50.464 84.6419 50.464C83.8419 50.464 83.1219 50.624 82.4819 50.944C81.8419 51.264 81.3405 51.712 80.9779 52.288C80.6152 52.864 80.4339 53.5413 80.4339 54.32ZM82.9139 54.32C82.9139 53.936 82.9939 53.6053 83.1539 53.328C83.3139 53.0507 83.5219 52.8373 83.7779 52.688C84.0339 52.5387 84.3219 52.464 84.6419 52.464C84.9512 52.464 85.2339 52.5387 85.4899 52.688C85.7565 52.8373 85.9645 53.0507 86.1139 53.328C86.2739 53.6053 86.3539 53.936 86.3539 54.32C86.3539 54.704 86.2739 55.0347 86.1139 55.312C85.9645 55.5787 85.7565 55.7867 85.4899 55.936C85.2339 56.0853 84.9512 56.16 84.6419 56.16C84.3219 56.16 84.0339 56.0853 83.7779 55.936C83.5219 55.7867 83.3139 55.5787 83.1539 55.312C82.9939 55.0347 82.9139 54.704 82.9139 54.32ZM91.2314 54.832H97.9514C97.9727 54.704 97.9834 54.5867 97.9834 54.48C97.9834 54.3627 97.9834 54.272 97.9834 54.208C97.9834 53.4293 97.8287 52.7627 97.5194 52.208C97.2207 51.6533 96.778 51.2267 96.1914 50.928C95.6047 50.6293 94.8794 50.48 94.0154 50.48C93.2154 50.48 92.5274 50.608 91.9514 50.864C91.386 51.12 90.9327 51.4773 90.5914 51.936C90.2607 52.3947 90.042 52.928 89.9354 53.536C89.914 53.664 89.898 53.792 89.8874 53.92C89.8767 54.048 89.8714 54.1813 89.8714 54.32C89.8714 55.056 90.0314 55.7173 90.3514 56.304C90.682 56.88 91.1567 57.3333 91.7754 57.664C92.4047 57.9947 93.162 58.16 94.0474 58.16C94.762 58.16 95.3647 58.0747 95.8554 57.904C96.3567 57.7227 96.778 57.472 97.1194 57.152C97.4607 56.8213 97.754 56.432 97.9994 55.984L95.8394 55.456C95.722 55.6587 95.578 55.8347 95.4074 55.984C95.2367 56.1227 95.034 56.2293 94.7994 56.304C94.5754 56.3787 94.314 56.416 94.0154 56.416C93.706 56.416 93.418 56.3467 93.1514 56.208C92.8954 56.0693 92.6874 55.8453 92.5274 55.536C92.378 55.2267 92.3034 54.8213 92.3034 54.32L92.3354 53.936C92.3354 53.5413 92.4047 53.2107 92.5434 52.944C92.682 52.6667 92.8687 52.4587 93.1034 52.32C93.3487 52.1707 93.6367 52.096 93.9674 52.096C94.2554 52.096 94.4954 52.1547 94.6874 52.272C94.89 52.3787 95.0447 52.5333 95.1514 52.736C95.2687 52.9387 95.3487 53.1893 95.3914 53.488H91.2314V54.832ZM102.915 54.32C104.003 54.3627 104.803 54.224 105.315 53.904C105.837 53.5733 106.099 53.136 106.099 52.592C106.099 52.1867 105.965 51.8293 105.699 51.52C105.443 51.2 105.085 50.9493 104.627 50.768C104.168 50.576 103.645 50.48 103.059 50.48C102.429 50.48 101.88 50.592 101.411 50.816C100.952 51.0293 100.589 51.3333 100.323 51.728C100.067 52.112 99.9385 52.5653 99.9385 53.088H102.131C102.141 52.9173 102.184 52.768 102.259 52.64C102.333 52.512 102.44 52.4107 102.579 52.336C102.728 52.2613 102.893 52.224 103.075 52.224C103.32 52.224 103.517 52.288 103.667 52.416C103.816 52.5333 103.891 52.6933 103.891 52.896C103.891 53.0987 103.811 53.2693 103.651 53.408C103.501 53.536 103.256 53.6 102.915 53.6V54.32ZM103.027 58.16C103.677 58.16 104.259 58.064 104.771 57.872C105.283 57.68 105.683 57.4133 105.971 57.072C106.269 56.72 106.419 56.3147 106.419 55.856C106.419 55.1947 106.115 54.6827 105.507 54.32C104.899 53.9467 104.035 53.7867 102.915 53.84V54.752C103.192 54.752 103.421 54.7893 103.603 54.864C103.795 54.928 103.933 55.024 104.019 55.152C104.115 55.2693 104.163 55.4187 104.163 55.6C104.163 55.7813 104.115 55.936 104.019 56.064C103.923 56.1813 103.789 56.2773 103.619 56.352C103.448 56.416 103.245 56.448 103.011 56.448C102.701 56.448 102.445 56.368 102.243 56.208C102.04 56.0373 101.896 55.7973 101.811 55.488H99.5225C99.6078 56.2987 99.9492 56.9493 100.547 57.44C101.155 57.92 101.981 58.16 103.027 58.16ZM112.741 53.552L114.501 57.52L116.837 57.024L112.741 50.08L108.645 57.024L110.981 57.52L112.741 53.552ZM115.429 58V59.44H117.701V56.096H107.781V59.44H110.133V58H115.429ZM118.934 54.32C118.934 55.088 119.115 55.76 119.478 56.336C119.841 56.912 120.342 57.36 120.982 57.68C121.622 58 122.342 58.16 123.142 58.16C123.942 58.16 124.657 58 125.286 57.68C125.926 57.36 126.427 56.912 126.79 56.336C127.163 55.76 127.35 55.088 127.35 54.32C127.35 53.5413 127.163 52.864 126.79 52.288C126.427 51.712 125.926 51.264 125.286 50.944C124.657 50.624 123.942 50.464 123.142 50.464C122.342 50.464 121.622 50.624 120.982 50.944C120.342 51.264 119.841 51.712 119.478 52.288C119.115 52.864 118.934 53.5413 118.934 54.32ZM121.414 54.32C121.414 53.936 121.494 53.6053 121.654 53.328C121.814 53.0507 122.022 52.8373 122.278 52.688C122.534 52.5387 122.822 52.464 123.142 52.464C123.451 52.464 123.734 52.5387 123.99 52.688C124.257 52.8373 124.465 53.0507 124.614 53.328C124.774 53.6053 124.854 53.936 124.854 54.32C124.854 54.704 124.774 55.0347 124.614 55.312C124.465 55.5787 124.257 55.7867 123.99 55.936C123.734 56.0853 123.451 56.16 123.142 56.16C122.822 56.16 122.534 56.0853 122.278 55.936C122.022 55.7867 121.814 55.5787 121.654 55.312C121.494 55.0347 121.414 54.704 121.414 54.32ZM128.787 50.64V58H131.107V50.64H128.787ZM133.779 50.64L130.627 53.68L134.147 58H136.995L133.523 53.68L136.675 50.64H133.779ZM37.5531 83.56H41.7931V80.94H37.5531V83.56ZM49.2428 77.04L52.7028 76.18V87H55.9628V72.74L49.2428 74.1V77.04ZM70.1586 82.52C70.1586 81.5467 69.9586 80.72 69.5586 80.04C69.1586 79.36 68.6319 78.84 67.9786 78.48C67.3386 78.12 66.6453 77.94 65.8986 77.94C65.4586 77.94 65.0319 77.98 64.6186 78.06C64.2186 78.1267 63.8319 78.2467 63.4586 78.42L64.2586 75.92H69.8586V73H61.7786L59.8186 81.08C60.2986 80.84 60.7653 80.66 61.2186 80.54C61.6853 80.4067 62.1319 80.32 62.5586 80.28C62.9986 80.2267 63.3986 80.2 63.7586 80.2C64.2253 80.2 64.6586 80.2667 65.0586 80.4C65.4719 80.5333 65.8053 80.7467 66.0586 81.04C66.3253 81.32 66.4586 81.6933 66.4586 82.16C66.4586 82.6 66.3519 82.9733 66.1386 83.28C65.9253 83.5867 65.6186 83.8133 65.2186 83.96C64.8186 84.1067 64.3319 84.18 63.7586 84.18C63.4253 84.18 63.0519 84.12 62.6386 84C62.2253 83.8667 61.8119 83.6933 61.3986 83.48C60.9986 83.2533 60.6053 82.98 60.2186 82.66L58.8986 85.44C59.3386 85.7733 59.8253 86.08 60.3586 86.36C60.8919 86.6267 61.5053 86.84 62.1986 87C62.8919 87.1733 63.6653 87.26 64.5186 87.26C65.1986 87.26 65.8653 87.1733 66.5186 87C67.1853 86.8133 67.7919 86.5267 68.3386 86.14C68.8986 85.7533 69.3386 85.26 69.6586 84.66C69.9919 84.06 70.1586 83.3467 70.1586 82.52ZM75.0092 80C75.0092 79.3467 75.0692 78.7533 75.1892 78.22C75.3092 77.6733 75.4826 77.2133 75.7092 76.84C75.9359 76.4533 76.2026 76.16 76.5092 75.96C76.8292 75.7467 77.1826 75.64 77.5692 75.64C77.9559 75.64 78.3026 75.7467 78.6092 75.96C78.9292 76.16 79.2026 76.4533 79.4292 76.84C79.6559 77.2133 79.8292 77.6733 79.9492 78.22C80.0692 78.7533 80.1292 79.3467 80.1292 80C80.1292 80.6533 80.0692 81.2533 79.9492 81.8C79.8292 82.3333 79.6559 82.7933 79.4292 83.18C79.2026 83.5533 78.9292 83.8467 78.6092 84.06C78.3026 84.26 77.9559 84.36 77.5692 84.36C77.1826 84.36 76.8292 84.26 76.5092 84.06C76.2026 83.8467 75.9359 83.5533 75.7092 83.18C75.4826 82.7933 75.3092 82.3333 75.1892 81.8C75.0692 81.2533 75.0092 80.6533 75.0092 80ZM71.7492 80C71.7492 81.52 71.9892 82.82 72.4692 83.9C72.9626 84.98 73.6492 85.8133 74.5292 86.4C75.4092 86.9733 76.4226 87.26 77.5692 87.26C78.7692 87.26 79.8026 86.9733 80.6692 86.4C81.5359 85.8133 82.2026 84.98 82.6692 83.9C83.1492 82.82 83.3892 81.52 83.3892 80C83.3892 78.48 83.1492 77.18 82.6692 76.1C82.2026 75.02 81.5359 74.1933 80.6692 73.62C79.8026 73.0333 78.7692 72.74 77.5692 72.74C76.4226 72.74 75.4092 73.0333 74.5292 73.62C73.6492 74.1933 72.9626 75.02 72.4692 76.1C71.9892 77.18 71.7492 78.48 71.7492 80ZM88.2514 80C88.2514 79.3467 88.3114 78.7533 88.4314 78.22C88.5514 77.6733 88.7247 77.2133 88.9514 76.84C89.1781 76.4533 89.4447 76.16 89.7514 75.96C90.0714 75.7467 90.4247 75.64 90.8114 75.64C91.1981 75.64 91.5447 75.7467 91.8514 75.96C92.1714 76.16 92.4447 76.4533 92.6714 76.84C92.8981 77.2133 93.0714 77.6733 93.1914 78.22C93.3114 78.7533 93.3714 79.3467 93.3714 80C93.3714 80.6533 93.3114 81.2533 93.1914 81.8C93.0714 82.3333 92.8981 82.7933 92.6714 83.18C92.4447 83.5533 92.1714 83.8467 91.8514 84.06C91.5447 84.26 91.1981 84.36 90.8114 84.36C90.4247 84.36 90.0714 84.26 89.7514 84.06C89.4447 83.8467 89.1781 83.5533 88.9514 83.18C88.7247 82.7933 88.5514 82.3333 88.4314 81.8C88.3114 81.2533 88.2514 80.6533 88.2514 80ZM84.9914 80C84.9914 81.52 85.2314 82.82 85.7114 83.9C86.2047 84.98 86.8914 85.8133 87.7714 86.4C88.6514 86.9733 89.6647 87.26 90.8114 87.26C92.0114 87.26 93.0447 86.9733 93.9114 86.4C94.7781 85.8133 95.4447 84.98 95.9114 83.9C96.3914 82.82 96.6314 81.52 96.6314 80C96.6314 78.48 96.3914 77.18 95.9114 76.1C95.4447 75.02 94.7781 74.1933 93.9114 73.62C93.0447 73.0333 92.0114 72.74 90.8114 72.74C89.6647 72.74 88.6514 73.0333 87.7714 73.62C86.8914 74.1933 86.2047 75.02 85.7114 76.1C85.2314 77.18 84.9914 78.48 84.9914 80ZM106.43 73V87H109.81V73H106.43ZM108.51 75.78H111.33C111.823 75.78 112.243 75.8267 112.59 75.92C112.936 76 113.203 76.1467 113.39 76.36C113.576 76.5733 113.67 76.86 113.67 77.22C113.67 77.5933 113.576 77.8867 113.39 78.1C113.203 78.3 112.936 78.4467 112.59 78.54C112.243 78.62 111.823 78.66 111.33 78.66H108.51V81.44H111.33C112.516 81.44 113.523 81.3 114.35 81.02C115.176 80.7267 115.803 80.2667 116.23 79.64C116.67 79.0133 116.89 78.2067 116.89 77.22C116.89 76.22 116.67 75.4133 116.23 74.8C115.803 74.1733 115.176 73.72 114.35 73.44C113.523 73.1467 112.516 73 111.33 73H108.51V75.78ZM109.57 85.46H113.81V82.84H109.57V85.46ZM104.03 81.32H108.27V78.7H104.03V81.32ZM104.03 85.46H108.27V82.84H104.03V85.46ZM42.4098 107.808C42.4098 107.605 42.4578 107.435 42.5538 107.296C42.6604 107.157 42.8098 107.051 43.0018 106.976C43.2044 106.891 43.4444 106.848 43.7218 106.848C44.1378 106.848 44.4898 106.901 44.7778 107.008C45.0764 107.104 45.3644 107.253 45.6418 107.456V106.32C45.5351 106.203 45.3538 106.085 45.0978 105.968C44.8524 105.84 44.5591 105.739 44.2178 105.664C43.8871 105.579 43.5351 105.536 43.1618 105.536C42.5218 105.536 41.9618 105.632 41.4818 105.824C41.0018 106.016 40.6284 106.288 40.3618 106.64C40.1058 106.992 39.9778 107.413 39.9778 107.904C39.9778 108.384 40.0898 108.795 40.3138 109.136C40.5484 109.467 40.8684 109.723 41.2738 109.904C41.6791 110.075 42.1378 110.16 42.6498 110.16C43.1618 110.16 43.6204 110.075 44.0258 109.904C44.4418 109.723 44.7671 109.467 45.0018 109.136C45.2471 108.795 45.3698 108.389 45.3698 107.92L45.1138 107.024C45.1138 107.419 45.0391 107.728 44.8898 107.952C44.7404 108.176 44.5378 108.336 44.2818 108.432C44.0364 108.528 43.7644 108.576 43.4658 108.576C43.2844 108.576 43.1084 108.549 42.9378 108.496C42.7778 108.432 42.6498 108.347 42.5538 108.24C42.4578 108.123 42.4098 107.979 42.4098 107.808ZM41.4658 104.912C41.5831 104.837 41.7591 104.752 41.9938 104.656C42.2284 104.549 42.5004 104.459 42.8098 104.384C43.1298 104.309 43.4658 104.272 43.8177 104.272C44.2231 104.272 44.5378 104.368 44.7618 104.56C44.9964 104.741 45.1138 104.987 45.1138 105.296V110H47.4338V104.816C47.4338 104.304 47.2844 103.872 46.9858 103.52C46.6978 103.168 46.2924 102.901 45.7698 102.72C45.2578 102.528 44.6711 102.432 44.0098 102.432C43.3484 102.432 42.7244 102.523 42.1378 102.704C41.5618 102.885 41.0658 103.077 40.6497 103.28L41.4658 104.912ZM53.2729 104.464C53.5822 104.464 53.8649 104.539 54.1209 104.688C54.3875 104.837 54.5955 105.051 54.7449 105.328C54.9049 105.605 54.9849 105.936 54.9849 106.32C54.9849 106.704 54.9049 107.035 54.7449 107.312C54.5849 107.579 54.3769 107.787 54.1209 107.936C53.8649 108.085 53.5769 108.16 53.2569 108.16C52.9475 108.16 52.6595 108.085 52.3929 107.936C52.1369 107.787 51.9289 107.579 51.7689 107.312C51.6089 107.035 51.5289 106.704 51.5289 106.32L48.8569 105.36C48.8569 106.416 49.0435 107.301 49.4169 108.016C49.8009 108.731 50.3235 109.269 50.9849 109.632C51.6569 109.984 52.4142 110.16 53.2569 110.16C54.1209 110.16 54.8622 109.995 55.4809 109.664C56.1102 109.333 56.5955 108.88 56.9369 108.304C57.2889 107.717 57.4649 107.056 57.4649 106.32C57.4649 105.573 57.2942 104.912 56.9529 104.336C56.6222 103.76 56.1529 103.307 55.5449 102.976C54.9475 102.645 54.2542 102.48 53.4649 102.48L53.2729 104.464ZM50.4569 106.32H51.5289C51.5289 106.021 51.5769 105.76 51.6729 105.536C51.7689 105.301 51.8969 105.104 52.0569 104.944C52.2275 104.784 52.4195 104.667 52.6329 104.592C52.8462 104.507 53.0595 104.464 53.2729 104.464L53.4649 102.48C53.0062 102.48 52.5902 102.571 52.2169 102.752C51.8542 102.923 51.5395 103.173 51.2729 103.504C51.0062 103.835 50.8035 104.24 50.6649 104.72C50.5262 105.189 50.4569 105.723 50.4569 106.32ZM48.8569 105.36L51.3689 106.304L50.9689 104.56C50.9689 104.027 51.0382 103.525 51.1769 103.056C51.3262 102.576 51.5822 102.149 51.9449 101.776C52.3182 101.403 52.8302 101.093 53.4809 100.848C54.0675 100.624 54.5902 100.347 55.0489 100.016C55.5182 99.6747 55.8969 99.2907 56.1849 98.864C56.4729 98.4373 56.6435 97.9893 56.6969 97.52H54.3769C54.3022 97.904 54.0675 98.24 53.6729 98.528C53.2889 98.816 52.7342 99.1093 52.0089 99.408C51.1769 99.7493 50.5315 100.197 50.0729 100.752C49.6142 101.296 49.2942 101.952 49.1129 102.72C48.9422 103.477 48.8569 104.357 48.8569 105.36ZM58.5433 106.32C58.5433 107.088 58.7246 107.76 59.0872 108.336C59.4499 108.912 59.9513 109.36 60.5913 109.68C61.2313 110 61.9513 110.16 62.7513 110.16C63.5513 110.16 64.2659 110 64.8953 109.68C65.5353 109.36 66.0366 108.912 66.3993 108.336C66.7726 107.76 66.9593 107.088 66.9593 106.32C66.9593 105.541 66.7726 104.864 66.3993 104.288C66.0366 103.712 65.5353 103.264 64.8953 102.944C64.2659 102.624 63.5513 102.464 62.7513 102.464C61.9513 102.464 61.2313 102.624 60.5913 102.944C59.9513 103.264 59.4499 103.712 59.0872 104.288C58.7246 104.864 58.5433 105.541 58.5433 106.32ZM61.0233 106.32C61.0233 105.936 61.1033 105.605 61.2633 105.328C61.4233 105.051 61.6313 104.837 61.8873 104.688C62.1433 104.539 62.4313 104.464 62.7513 104.464C63.0606 104.464 63.3433 104.539 63.5993 104.688C63.8659 104.837 64.0739 105.051 64.2233 105.328C64.3833 105.605 64.4633 105.936 64.4633 106.32C64.4633 106.704 64.3833 107.035 64.2233 107.312C64.0739 107.579 63.8659 107.787 63.5993 107.936C63.3433 108.085 63.0606 108.16 62.7513 108.16C62.4313 108.16 62.1433 108.085 61.8873 107.936C61.6313 107.787 61.4233 107.579 61.2633 107.312C61.1033 107.035 61.0233 106.704 61.0233 106.32ZM69.1648 107.024H75.1168V105.216H69.1648V107.024ZM74.0288 102.64V110H76.3488V102.64H74.0288ZM68.4128 102.64V110H70.7488V102.64H68.4128ZM79.1845 106.832H85.9045C85.9258 106.704 85.9365 106.587 85.9365 106.48C85.9365 106.363 85.9365 106.272 85.9365 106.208C85.9365 105.429 85.7818 104.763 85.4725 104.208C85.1738 103.653 84.7312 103.227 84.1445 102.928C83.5578 102.629 82.8325 102.48 81.9685 102.48C81.1685 102.48 80.4805 102.608 79.9045 102.864C79.3392 103.12 78.8858 103.477 78.5445 103.936C78.2138 104.395 77.9952 104.928 77.8885 105.536C77.8672 105.664 77.8512 105.792 77.8405 105.92C77.8298 106.048 77.8245 106.181 77.8245 106.32C77.8245 107.056 77.9845 107.717 78.3045 108.304C78.6352 108.88 79.1098 109.333 79.7285 109.664C80.3578 109.995 81.1152 110.16 82.0005 110.16C82.7152 110.16 83.3178 110.075 83.8085 109.904C84.3098 109.723 84.7312 109.472 85.0725 109.152C85.4138 108.821 85.7072 108.432 85.9525 107.984L83.7925 107.456C83.6752 107.659 83.5312 107.835 83.3605 107.984C83.1898 108.123 82.9872 108.229 82.7525 108.304C82.5285 108.379 82.2672 108.416 81.9685 108.416C81.6592 108.416 81.3712 108.347 81.1045 108.208C80.8485 108.069 80.6405 107.845 80.4805 107.536C80.3312 107.227 80.2565 106.821 80.2565 106.32L80.2885 105.936C80.2885 105.541 80.3578 105.211 80.4965 104.944C80.6352 104.667 80.8218 104.459 81.0565 104.32C81.3018 104.171 81.5898 104.096 81.9205 104.096C82.2085 104.096 82.4485 104.155 82.6405 104.272C82.8432 104.379 82.9978 104.533 83.1045 104.736C83.2218 104.939 83.3018 105.189 83.3445 105.488H79.1845V106.832ZM94.5156 110H96.9476L94.7236 102.08L93.5076 104.96L94.5156 110ZM91.2676 107.904L91.7476 110.496L94.8836 105.344L94.7236 102.08L91.2676 107.904ZM91.7476 110.496L92.2276 107.904L88.8196 102.08L88.6596 105.344L91.7476 110.496ZM86.5956 110H89.0276L90.0356 104.96L88.8196 102.08L86.5956 110ZM98.9033 106.832H105.623C105.645 106.704 105.655 106.587 105.655 106.48C105.655 106.363 105.655 106.272 105.655 106.208C105.655 105.429 105.501 104.763 105.191 104.208C104.893 103.653 104.45 103.227 103.863 102.928C103.277 102.629 102.551 102.48 101.687 102.48C100.887 102.48 100.199 102.608 99.6233 102.864C99.0579 103.12 98.6046 103.477 98.2633 103.936C97.9326 104.395 97.7139 104.928 97.6073 105.536C97.5859 105.664 97.5699 105.792 97.5592 105.92C97.5486 106.048 97.5433 106.181 97.5433 106.32C97.5433 107.056 97.7033 107.717 98.0233 108.304C98.3539 108.88 98.8286 109.333 99.4473 109.664C100.077 109.995 100.834 110.16 101.719 110.16C102.434 110.16 103.037 110.075 103.527 109.904C104.029 109.723 104.45 109.472 104.791 109.152C105.133 108.821 105.426 108.432 105.671 107.984L103.511 107.456C103.394 107.659 103.25 107.835 103.079 107.984C102.909 108.123 102.706 108.229 102.471 108.304C102.247 108.379 101.986 108.416 101.687 108.416C101.378 108.416 101.09 108.347 100.823 108.208C100.567 108.069 100.359 107.845 100.199 107.536C100.05 107.227 99.9753 106.821 99.9753 106.32L100.007 105.936C100.007 105.541 100.077 105.211 100.215 104.944C100.354 104.667 100.541 104.459 100.775 104.32C101.021 104.171 101.309 104.096 101.639 104.096C101.927 104.096 102.167 104.155 102.359 104.272C102.562 104.379 102.717 104.533 102.823 104.736C102.941 104.939 103.021 105.189 103.063 105.488H98.9033V106.832ZM107.93 107.024H113.882V105.216H107.93V107.024ZM112.794 102.64V110H115.114V102.64H112.794ZM107.178 102.64V110H109.514V102.64H107.178ZM116.158 102.64V104.64H121.326V102.64H116.158ZM117.582 102.96V110H119.902V102.96H117.582Z" fill="black"/>
</svg>
