<svg width="160" height="152" viewBox="0 0 160 152" fill="none" xmlns="http://www.w3.org/2000/svg">
<rect width="160" height="152" rx="30" fill="#FF5959"/>
<path d="M47.556 49.352L53.604 47.768V68H58.608V42.368L47.556 44.708V49.352ZM69.1276 55.4C69.1276 54.128 69.2476 52.976 69.4876 51.944C69.7276 50.888 70.0756 49.988 70.5316 49.244C70.9876 48.476 71.5276 47.888 72.1516 47.48C72.7756 47.072 73.4716 46.868 74.2396 46.868C75.0316 46.868 75.7396 47.072 76.3636 47.48C76.9876 47.888 77.5276 48.476 77.9836 49.244C78.4396 49.988 78.7876 50.888 79.0276 51.944C79.2676 52.976 79.3876 54.128 79.3876 55.4C79.3876 56.672 79.2676 57.836 79.0276 58.892C78.7876 59.924 78.4396 60.824 77.9836 61.592C77.5276 62.336 76.9876 62.912 76.3636 63.32C75.7396 63.728 75.0316 63.932 74.2396 63.932C73.4716 63.932 72.7756 63.728 72.1516 63.32C71.5276 62.912 70.9876 62.336 70.5316 61.592C70.0756 60.824 69.7276 59.924 69.4876 58.892C69.2476 57.836 69.1276 56.672 69.1276 55.4ZM64.1236 55.4C64.1236 58.064 64.5436 60.368 65.3836 62.312C66.2476 64.256 67.4356 65.768 68.9476 66.848C70.4836 67.904 72.2476 68.432 74.2396 68.432C76.3036 68.432 78.0916 67.904 79.6036 66.848C81.1156 65.768 82.2916 64.256 83.1316 62.312C83.9716 60.368 84.3916 58.064 84.3916 55.4C84.3916 52.736 83.9716 50.432 83.1316 48.488C82.2916 46.544 81.1156 45.044 79.6036 43.988C78.0916 42.908 76.3036 42.368 74.2396 42.368C72.2476 42.368 70.4836 42.908 68.9476 43.988C67.4356 45.044 66.2476 46.544 65.3836 48.488C64.5436 50.432 64.1236 52.736 64.1236 55.4ZM92.2604 55.4C92.2604 54.128 92.3804 52.976 92.6204 51.944C92.8604 50.888 93.2084 49.988 93.6644 49.244C94.1204 48.476 94.6604 47.888 95.2844 47.48C95.9084 47.072 96.6044 46.868 97.3724 46.868C98.1644 46.868 98.8724 47.072 99.4964 47.48C100.12 47.888 100.66 48.476 101.116 49.244C101.572 49.988 101.92 50.888 102.16 51.944C102.4 52.976 102.52 54.128 102.52 55.4C102.52 56.672 102.4 57.836 102.16 58.892C101.92 59.924 101.572 60.824 101.116 61.592C100.66 62.336 100.12 62.912 99.4964 63.32C98.8724 63.728 98.1644 63.932 97.3724 63.932C96.6044 63.932 95.9084 63.728 95.2844 63.32C94.6604 62.912 94.1204 62.336 93.6644 61.592C93.2084 60.824 92.8604 59.924 92.6204 58.892C92.3804 57.836 92.2604 56.672 92.2604 55.4ZM87.2564 55.4C87.2564 58.064 87.6764 60.368 88.5164 62.312C89.3804 64.256 90.5684 65.768 92.0804 66.848C93.6164 67.904 95.3804 68.432 97.3724 68.432C99.4364 68.432 101.224 67.904 102.736 66.848C104.248 65.768 105.424 64.256 106.264 62.312C107.104 60.368 107.524 58.064 107.524 55.4C107.524 52.736 107.104 50.432 106.264 48.488C105.424 46.544 104.248 45.044 102.736 43.988C101.224 42.908 99.4364 42.368 97.3724 42.368C95.3804 42.368 93.6164 42.908 92.0804 43.988C90.5684 45.044 89.3804 46.544 88.5164 48.488C87.6764 50.432 87.2564 52.736 87.2564 55.4Z" fill="black"/>
<path d="M46.7796 89.32H48.7956C49.5422 89.32 50.1982 89.2187 50.7636 89.016C51.3289 88.8027 51.7716 88.4933 52.0916 88.088C52.4116 87.6827 52.5716 87.1973 52.5716 86.632C52.5716 85.992 52.4116 85.464 52.0916 85.048C51.7716 84.632 51.3289 84.3227 50.7636 84.12C50.1982 83.9067 49.5422 83.8 48.7956 83.8H45.0676V95H49.0356C49.8676 95 50.5982 94.888 51.2276 94.664C51.8569 94.44 52.3422 94.0933 52.6836 93.624C53.0356 93.1547 53.2116 92.552 53.2116 91.816C53.2116 91.2613 53.0942 90.7867 52.8596 90.392C52.6356 89.9973 52.3262 89.6773 51.9316 89.432C51.5369 89.176 51.0889 88.9893 50.5876 88.872C50.0969 88.7547 49.5796 88.696 49.0356 88.696H46.7796V89.944H48.8276C49.1156 89.944 49.3822 89.976 49.6276 90.04C49.8729 90.0933 50.0862 90.1893 50.2676 90.328C50.4596 90.456 50.6036 90.6213 50.6996 90.824C50.8062 91.016 50.8596 91.2507 50.8596 91.528C50.8596 91.912 50.7689 92.2267 50.5876 92.472C50.4169 92.7173 50.1769 92.8987 49.8676 93.016C49.5582 93.1227 49.2116 93.176 48.8276 93.176H47.3556V85.624H48.5876C49.0889 85.624 49.4836 85.736 49.7716 85.96C50.0702 86.184 50.2196 86.5093 50.2196 86.936C50.2196 87.2133 50.1502 87.4533 50.0116 87.656C49.8836 87.8587 49.6969 88.0133 49.4516 88.12C49.2062 88.2267 48.9182 88.28 48.5876 88.28H46.7796V89.32ZM58.1373 91.32C59.14 91.352 59.892 91.2027 60.3933 90.872C60.9053 90.5307 61.1613 90.0933 61.1613 89.56C61.1613 89.1653 61.0333 88.8133 60.7773 88.504C60.532 88.184 60.1906 87.9333 59.7533 87.752C59.3266 87.5707 58.836 87.48 58.2813 87.48C57.684 87.48 57.1613 87.5867 56.7133 87.8C56.2653 88.0133 55.9133 88.312 55.6573 88.696C55.412 89.0693 55.2893 89.5013 55.2893 89.992H57.2093C57.2093 89.8213 57.252 89.6667 57.3373 89.528C57.4226 89.3787 57.5453 89.2613 57.7053 89.176C57.8653 89.0907 58.0626 89.048 58.2973 89.048C58.5746 89.048 58.7986 89.1173 58.9693 89.256C59.14 89.384 59.2253 89.5653 59.2253 89.8C59.2253 90.0133 59.14 90.1947 58.9693 90.344C58.7986 90.4933 58.5213 90.568 58.1373 90.568V91.32ZM58.2493 95.16C58.8573 95.16 59.4066 95.0693 59.8973 94.888C60.388 94.696 60.772 94.4293 61.0493 94.088C61.3373 93.736 61.4813 93.32 61.4813 92.84C61.4813 92.1787 61.1826 91.672 60.5853 91.32C59.9986 90.968 59.1826 90.808 58.1373 90.84V91.72C58.436 91.72 58.6866 91.7573 58.8893 91.832C59.1026 91.9067 59.2626 92.0187 59.3693 92.168C59.476 92.3067 59.5293 92.4773 59.5293 92.68C59.5293 92.872 59.476 93.0427 59.3693 93.192C59.2626 93.3307 59.1133 93.4373 58.9213 93.512C58.7293 93.5867 58.5 93.624 58.2333 93.624C57.8493 93.624 57.5453 93.528 57.3213 93.336C57.108 93.1333 56.964 92.8667 56.8893 92.536H54.9053C54.9906 93.3253 55.3213 93.96 55.8973 94.44C56.4733 94.92 57.2573 95.16 58.2493 95.16ZM65.2513 98.52V87.64H63.1713V98.52H65.2513ZM71.2993 91.32C71.2993 90.4773 71.134 89.768 70.8033 89.192C70.4726 88.6053 70.0353 88.1627 69.4913 87.864C68.958 87.5653 68.382 87.416 67.7633 87.416C67.134 87.416 66.5846 87.576 66.1153 87.896C65.6566 88.216 65.2993 88.6693 65.0433 89.256C64.798 89.832 64.6753 90.52 64.6753 91.32C64.6753 92.1093 64.798 92.7973 65.0433 93.384C65.2993 93.9707 65.6566 94.424 66.1153 94.744C66.5846 95.064 67.134 95.224 67.7633 95.224C68.382 95.224 68.958 95.0747 69.4913 94.776C70.0353 94.4773 70.4726 94.0347 70.8033 93.448C71.134 92.8613 71.2993 92.152 71.2993 91.32ZM69.1553 91.32C69.1553 91.7573 69.0646 92.1307 68.8833 92.44C68.702 92.7493 68.4566 92.984 68.1473 93.144C67.8486 93.304 67.518 93.384 67.1553 93.384C66.846 93.384 66.542 93.3093 66.2433 93.16C65.9553 93 65.7153 92.7653 65.5233 92.456C65.342 92.1467 65.2513 91.768 65.2513 91.32C65.2513 90.872 65.342 90.4933 65.5233 90.184C65.7153 89.8747 65.9553 89.6453 66.2433 89.496C66.542 89.336 66.846 89.256 67.1553 89.256C67.518 89.256 67.8486 89.336 68.1473 89.496C68.4566 89.656 68.702 89.8907 68.8833 90.2C69.0646 90.5093 69.1553 90.8827 69.1553 91.32ZM72.3483 91.32C72.3483 92.0773 72.5243 92.7493 72.8763 93.336C73.239 93.912 73.7243 94.36 74.3323 94.68C74.951 95 75.6496 95.16 76.4283 95.16C77.207 95.16 77.9003 95 78.5083 94.68C79.127 94.36 79.6123 93.912 79.9643 93.336C80.327 92.7493 80.5083 92.0773 80.5083 91.32C80.5083 90.552 80.327 89.88 79.9643 89.304C79.6123 88.728 79.127 88.28 78.5083 87.96C77.9003 87.64 77.207 87.48 76.4283 87.48C75.6496 87.48 74.951 87.64 74.3323 87.96C73.7243 88.28 73.239 88.728 72.8763 89.304C72.5243 89.88 72.3483 90.552 72.3483 91.32ZM74.4603 91.32C74.4603 90.904 74.5456 90.536 74.7163 90.216C74.8976 89.896 75.1376 89.6507 75.4363 89.48C75.735 89.3093 76.0656 89.224 76.4283 89.224C76.791 89.224 77.1216 89.3093 77.4203 89.48C77.719 89.6507 77.9536 89.896 78.1243 90.216C78.3056 90.536 78.3963 90.904 78.3963 91.32C78.3963 91.736 78.3056 92.104 78.1243 92.424C77.9536 92.7333 77.719 92.9787 77.4203 93.16C77.1216 93.3307 76.791 93.416 76.4283 93.416C76.0656 93.416 75.735 93.3307 75.4363 93.16C75.1376 92.9787 74.8976 92.7333 74.7163 92.424C74.5456 92.104 74.4603 91.736 74.4603 91.32ZM83.6311 91.32C83.6311 90.904 83.7271 90.536 83.9191 90.216C84.1111 89.896 84.3671 89.6453 84.6871 89.464C85.0177 89.272 85.3804 89.176 85.7751 89.176C86.0737 89.176 86.3724 89.224 86.6711 89.32C86.9697 89.416 87.2417 89.5547 87.4871 89.736C87.7431 89.9067 87.9351 90.1093 88.0631 90.344V88.216C87.8071 87.992 87.4711 87.816 87.0551 87.688C86.6497 87.5493 86.1751 87.48 85.6311 87.48C84.8524 87.48 84.1484 87.64 83.5191 87.96C82.9004 88.28 82.4097 88.728 82.0471 89.304C81.6951 89.88 81.5191 90.552 81.5191 91.32C81.5191 92.0773 81.6951 92.7493 82.0471 93.336C82.4097 93.912 82.9004 94.36 83.5191 94.68C84.1484 95 84.8524 95.16 85.6311 95.16C86.1751 95.16 86.6497 95.096 87.0551 94.968C87.4711 94.8293 87.8071 94.6427 88.0631 94.408V92.28C87.9351 92.5147 87.7484 92.7227 87.5031 92.904C87.2684 93.0747 87.0017 93.2133 86.7031 93.32C86.4044 93.416 86.0951 93.464 85.7751 93.464C85.3804 93.464 85.0177 93.3733 84.6871 93.192C84.3671 93.0107 84.1111 92.76 83.9191 92.44C83.7271 92.12 83.6311 91.7467 83.6311 91.32ZM97.2352 87.64H90.1952V92.024C90.1952 92.4827 90.0779 92.7867 89.8432 92.936C89.6192 93.0747 89.3472 93.144 89.0272 93.144V95C89.8059 95 90.4245 94.9093 90.8832 94.728C91.3525 94.536 91.6885 94.2533 91.8912 93.88C92.0939 93.496 92.1952 93.016 92.1952 92.44V89.528H95.2352V95H97.2352V87.64ZM107.036 87.64V95H109.1V87.64H107.036ZM99.5318 87.64V95H101.612V87.64H99.5318ZM101.084 91.64H103.068C103.398 91.64 103.649 91.72 103.82 91.88C104.001 92.0293 104.092 92.2373 104.092 92.504C104.092 92.6853 104.049 92.84 103.964 92.968C103.889 93.096 103.777 93.1973 103.628 93.272C103.478 93.336 103.292 93.368 103.068 93.368H101.084V95H103.372C103.884 95 104.342 94.904 104.748 94.712C105.153 94.52 105.473 94.2373 105.708 93.864C105.942 93.48 106.06 93.0267 106.06 92.504C106.06 91.7147 105.798 91.1387 105.276 90.776C104.764 90.4027 104.129 90.216 103.372 90.216H101.084V91.64ZM118.197 89.464L118.277 87.08L111.269 93.176L111.189 95.56L118.197 89.464ZM113.189 87.64H111.189V95.56L113.189 93.464V87.64ZM118.277 87.08L116.277 89.176V95H118.277V87.08ZM112.229 83.88C112.229 84.2853 112.325 84.6693 112.517 85.032C112.72 85.384 113.013 85.6667 113.397 85.88C113.792 86.0827 114.267 86.184 114.821 86.184C115.387 86.184 115.861 86.0827 116.245 85.88C116.629 85.6667 116.923 85.384 117.125 85.032C117.328 84.6693 117.429 84.2853 117.429 83.88H115.973C115.973 84.0507 115.931 84.216 115.845 84.376C115.771 84.5253 115.648 84.6533 115.477 84.76C115.307 84.856 115.088 84.904 114.821 84.904C114.565 84.904 114.352 84.856 114.181 84.76C114.011 84.6533 113.883 84.5253 113.797 84.376C113.712 84.216 113.669 84.0507 113.669 83.88H112.229ZM67.6512 112.224C68.0139 112.224 68.3445 112.309 68.6432 112.48C68.9419 112.651 69.1765 112.896 69.3472 113.216C69.5179 113.536 69.6032 113.904 69.6032 114.32C69.6032 114.736 69.5179 115.104 69.3472 115.424C69.1765 115.733 68.9419 115.979 68.6432 116.16C68.3445 116.331 68.0139 116.416 67.6512 116.416C67.2779 116.416 66.9419 116.331 66.6432 116.16C66.3445 115.979 66.1045 115.733 65.9232 115.424C65.7525 115.104 65.6672 114.736 65.6672 114.32L63.4272 113.36C63.4272 114.416 63.6085 115.301 63.9712 116.016C64.3445 116.731 64.8459 117.269 65.4752 117.632C66.1152 117.984 66.8405 118.16 67.6512 118.16C68.4619 118.16 69.1712 117.995 69.7792 117.664C70.3979 117.333 70.8779 116.88 71.2192 116.304C71.5605 115.717 71.7312 115.056 71.7312 114.32C71.7312 113.573 71.5605 112.912 71.2192 112.336C70.8779 111.76 70.4139 111.307 69.8272 110.976C69.2405 110.645 68.5579 110.48 67.7792 110.48L67.6512 112.224ZM64.7552 114.32H65.6672C65.6672 113.979 65.7259 113.68 65.8432 113.424C65.9605 113.168 66.1152 112.949 66.3072 112.768C66.4992 112.587 66.7125 112.453 66.9472 112.368C67.1819 112.272 67.4165 112.224 67.6512 112.224L67.7792 110.48C67.3205 110.48 66.9045 110.571 66.5312 110.752C66.1685 110.923 65.8485 111.173 65.5712 111.504C65.3045 111.835 65.1019 112.24 64.9632 112.72C64.8245 113.189 64.7552 113.723 64.7552 114.32ZM63.4272 113.36L65.5072 114.272L65.2352 112.56C65.2352 112.027 65.3045 111.515 65.4432 111.024C65.5925 110.533 65.8485 110.091 66.2112 109.696C66.5845 109.301 67.0965 108.987 67.7472 108.752C68.3339 108.539 68.8565 108.272 69.3152 107.952C69.7845 107.632 70.1632 107.264 70.4512 106.848C70.7392 106.432 70.9099 105.989 70.9632 105.52H68.9632C68.8885 105.904 68.6592 106.251 68.2752 106.56C67.9019 106.859 67.3525 107.152 66.6272 107.44C65.7845 107.76 65.1285 108.192 64.6592 108.736C64.2005 109.28 63.8805 109.936 63.6992 110.704C63.5179 111.472 63.4272 112.357 63.4272 113.36ZM80.3691 112.464L80.4491 110.08L73.4411 116.176L73.3611 118.56L80.3691 112.464ZM75.3611 110.64H73.3611V118.56L75.3611 116.464V110.64ZM80.4491 110.08L78.4491 112.176V118H80.4491V110.08ZM89.8914 110.64H82.8514V115.024C82.8514 115.483 82.7341 115.787 82.4994 115.936C82.2754 116.075 82.0034 116.144 81.6834 116.144V118C82.4621 118 83.0808 117.909 83.5394 117.728C84.0088 117.536 84.3448 117.253 84.5474 116.88C84.7501 116.496 84.8514 116.016 84.8514 115.44V112.528H87.8914V118H89.8914V110.64ZM92.8761 114.784H99.4681C99.4894 114.667 99.5001 114.56 99.5001 114.464C99.5001 114.368 99.5001 114.288 99.5001 114.224C99.5001 113.445 99.3507 112.779 99.0521 112.224C98.7534 111.669 98.3161 111.243 97.7401 110.944C97.1747 110.635 96.4867 110.48 95.6761 110.48C94.9401 110.48 94.2947 110.608 93.7401 110.864C93.1854 111.12 92.7427 111.477 92.4121 111.936C92.0814 112.395 91.8627 112.928 91.7561 113.536C91.7347 113.664 91.7187 113.792 91.7081 113.92C91.6974 114.048 91.6921 114.181 91.6921 114.32C91.6921 115.056 91.8467 115.717 92.1561 116.304C92.4761 116.88 92.9347 117.333 93.5321 117.664C94.1294 117.995 94.8387 118.16 95.6601 118.16C96.3427 118.16 96.9187 118.075 97.3881 117.904C97.8681 117.733 98.2734 117.493 98.6041 117.184C98.9347 116.864 99.2227 116.496 99.4681 116.08L97.6601 115.52C97.5321 115.733 97.3721 115.92 97.1801 116.08C96.9881 116.24 96.7694 116.363 96.5241 116.448C96.2787 116.533 95.9961 116.576 95.6761 116.576C95.3134 116.576 94.9881 116.501 94.7001 116.352C94.4121 116.192 94.1827 115.947 94.0121 115.616C93.8521 115.275 93.7721 114.843 93.7721 114.32L93.8041 113.904C93.8041 113.499 93.8841 113.147 94.0441 112.848C94.2041 112.549 94.4227 112.325 94.7001 112.176C94.9774 112.016 95.2921 111.936 95.6441 111.936C95.9854 111.936 96.2681 112 96.4921 112.128C96.7161 112.256 96.8921 112.437 97.0201 112.672C97.1481 112.907 97.2334 113.184 97.2761 113.504H92.8761V114.784ZM100.15 110.64V112.384H105.046V110.64H100.15ZM101.606 110.96V118H103.606V110.96H101.606Z" fill="black"/>
</svg>
