<svg width="159" height="152" viewBox="0 0 159 152" fill="none" xmlns="http://www.w3.org/2000/svg">
<rect width="159" height="152" rx="30" fill="#FF5959"/>
<path d="M44.72 68H64.988V63.284H54.44L60.992 57.092C62.048 56.132 62.9 55.064 63.548 53.888C64.196 52.712 64.52 51.452 64.52 50.108C64.52 49.196 64.328 48.284 63.944 47.372C63.584 46.46 63.02 45.632 62.252 44.888C61.508 44.12 60.56 43.508 59.408 43.052C58.28 42.572 56.96 42.332 55.448 42.332C53.408 42.332 51.68 42.764 50.264 43.628C48.872 44.468 47.816 45.608 47.096 47.048C46.376 48.488 46.016 50.108 46.016 51.908H51.056C51.056 50.9 51.224 50.012 51.56 49.244C51.92 48.476 52.412 47.888 53.036 47.48C53.684 47.048 54.452 46.832 55.34 46.832C55.964 46.832 56.516 46.94 56.996 47.156C57.476 47.348 57.884 47.612 58.22 47.948C58.556 48.284 58.808 48.668 58.976 49.1C59.144 49.532 59.228 49.976 59.228 50.432C59.228 51.08 59.108 51.704 58.868 52.304C58.628 52.904 58.28 53.504 57.824 54.104C57.368 54.704 56.816 55.352 56.168 56.048L44.72 68ZM87.5206 59.864C87.5206 58.136 87.1606 56.66 86.4406 55.436C85.7446 54.188 84.8206 53.228 83.6686 52.556C82.5166 51.884 81.2566 51.548 79.8886 51.548C79.1446 51.548 78.4126 51.62 77.6926 51.764C76.9966 51.884 76.3366 52.112 75.7126 52.448L77.2246 47.264H87.1246V42.8H73.4086L69.9526 56.984C70.8166 56.504 71.6326 56.144 72.4006 55.904C73.1926 55.64 73.9606 55.46 74.7046 55.364C75.4486 55.244 76.1566 55.184 76.8286 55.184C77.7406 55.184 78.5806 55.352 79.3486 55.688C80.1406 56 80.7646 56.468 81.2206 57.092C81.7006 57.716 81.9406 58.484 81.9406 59.396C81.9406 60.332 81.7366 61.124 81.3286 61.772C80.9206 62.396 80.3326 62.876 79.5646 63.212C78.8206 63.548 77.9086 63.716 76.8286 63.716C76.1326 63.716 75.4006 63.584 74.6326 63.32C73.8646 63.032 73.1206 62.648 72.4006 62.168C71.7046 61.688 71.0566 61.148 70.4566 60.548L68.0446 64.544C68.7406 65.24 69.5446 65.888 70.4566 66.488C71.3686 67.064 72.4246 67.532 73.6246 67.892C74.8486 68.252 76.2286 68.432 77.7646 68.432C78.9886 68.432 80.1766 68.264 81.3286 67.928C82.4806 67.592 83.5246 67.076 84.4606 66.38C85.3966 65.684 86.1406 64.796 86.6926 63.716C87.2446 62.636 87.5206 61.352 87.5206 59.864ZM95.4088 55.4C95.4088 54.128 95.5288 52.976 95.7688 51.944C96.0088 50.888 96.3568 49.988 96.8128 49.244C97.2688 48.476 97.8088 47.888 98.4328 47.48C99.0568 47.072 99.7528 46.868 100.521 46.868C101.313 46.868 102.021 47.072 102.645 47.48C103.269 47.888 103.809 48.476 104.265 49.244C104.721 49.988 105.069 50.888 105.309 51.944C105.549 52.976 105.669 54.128 105.669 55.4C105.669 56.672 105.549 57.836 105.309 58.892C105.069 59.924 104.721 60.824 104.265 61.592C103.809 62.336 103.269 62.912 102.645 63.32C102.021 63.728 101.313 63.932 100.521 63.932C99.7528 63.932 99.0568 63.728 98.4328 63.32C97.8088 62.912 97.2688 62.336 96.8128 61.592C96.3568 60.824 96.0088 59.924 95.7688 58.892C95.5288 57.836 95.4088 56.672 95.4088 55.4ZM90.4048 55.4C90.4048 58.064 90.8248 60.368 91.6648 62.312C92.5288 64.256 93.7168 65.768 95.2288 66.848C96.7648 67.904 98.5288 68.432 100.521 68.432C102.585 68.432 104.373 67.904 105.885 66.848C107.397 65.768 108.573 64.256 109.413 62.312C110.253 60.368 110.673 58.064 110.673 55.4C110.673 52.736 110.253 50.432 109.413 48.488C108.573 46.544 107.397 45.044 105.885 43.988C104.373 42.908 102.585 42.368 100.521 42.368C98.5288 42.368 96.7648 42.908 95.2288 43.988C93.7168 45.044 92.5288 46.544 91.6648 48.488C90.8248 50.432 90.4048 52.736 90.4048 55.4Z" fill="black"/>
<path d="M52.2688 87.56L54.8448 94.52H57.4528L52.2688 83.24L47.0848 94.52H49.6927L52.2688 87.56ZM56.2048 95V96.76H58.4288V93H46.1088V96.76H48.3328V95H56.2048ZM60.8683 91.784H67.4603C67.4816 91.6667 67.4923 91.56 67.4923 91.464C67.4923 91.368 67.4923 91.288 67.4923 91.224C67.4923 90.4453 67.3429 89.7787 67.0443 89.224C66.7456 88.6693 66.3083 88.2427 65.7323 87.944C65.1669 87.6347 64.4789 87.48 63.6683 87.48C62.9323 87.48 62.2869 87.608 61.7323 87.864C61.1776 88.12 60.7349 88.4773 60.4043 88.936C60.0736 89.3947 59.8549 89.928 59.7483 90.536C59.7269 90.664 59.7109 90.792 59.7003 90.92C59.6896 91.048 59.6842 91.1813 59.6842 91.32C59.6842 92.056 59.8389 92.7173 60.1483 93.304C60.4683 93.88 60.9269 94.3333 61.5243 94.664C62.1216 94.9947 62.8309 95.16 63.6523 95.16C64.3349 95.16 64.9109 95.0747 65.3803 94.904C65.8603 94.7333 66.2656 94.4933 66.5963 94.184C66.9269 93.864 67.2149 93.496 67.4603 93.08L65.6523 92.52C65.5243 92.7333 65.3643 92.92 65.1723 93.08C64.9803 93.24 64.7616 93.3627 64.5163 93.448C64.2709 93.5333 63.9883 93.576 63.6683 93.576C63.3056 93.576 62.9803 93.5013 62.6923 93.352C62.4043 93.192 62.1749 92.9467 62.0043 92.616C61.8443 92.2747 61.7643 91.8427 61.7643 91.32L61.7963 90.904C61.7963 90.4987 61.8763 90.1467 62.0363 89.848C62.1963 89.5493 62.4149 89.3253 62.6923 89.176C62.9696 89.016 63.2843 88.936 63.6363 88.936C63.9776 88.936 64.2603 89 64.4843 89.128C64.7083 89.256 64.8843 89.4373 65.0123 89.672C65.1403 89.9067 65.2256 90.184 65.2683 90.504H60.8683V91.784ZM68.1425 87.64V89.384H73.0385V87.64H68.1425ZM69.5985 87.96V95H71.5985V87.96H69.5985ZM75.4826 91.32C75.4826 90.904 75.5786 90.536 75.7706 90.216C75.9626 89.896 76.2186 89.6453 76.5386 89.464C76.8693 89.272 77.232 89.176 77.6266 89.176C77.9253 89.176 78.224 89.224 78.5226 89.32C78.8213 89.416 79.0933 89.5547 79.3386 89.736C79.5946 89.9067 79.7866 90.1093 79.9146 90.344V88.216C79.6586 87.992 79.3226 87.816 78.9066 87.688C78.5013 87.5493 78.0266 87.48 77.4826 87.48C76.704 87.48 76 87.64 75.3706 87.96C74.752 88.28 74.2613 88.728 73.8986 89.304C73.5466 89.88 73.3706 90.552 73.3706 91.32C73.3706 92.0773 73.5466 92.7493 73.8986 93.336C74.2613 93.912 74.752 94.36 75.3706 94.68C76 95 76.704 95.16 77.4826 95.16C78.0266 95.16 78.5013 95.096 78.9066 94.968C79.3226 94.8293 79.6586 94.6427 79.9146 94.408V92.28C79.7866 92.5147 79.6 92.7227 79.3546 92.904C79.12 93.0747 78.8533 93.2133 78.5546 93.32C78.256 93.416 77.9466 93.464 77.6266 93.464C77.232 93.464 76.8693 93.3733 76.5386 93.192C76.2186 93.0107 75.9626 92.76 75.7706 92.44C75.5786 92.12 75.4826 91.7467 75.4826 91.32ZM81.6948 87.64V95H83.6948V87.64H81.6948ZM86.3988 87.64L83.2308 90.68L86.7348 95H89.1988L85.7108 90.68L88.8788 87.64H86.3988ZM97.3456 89.464L97.4256 87.08L90.4176 93.176L90.3376 95.56L97.3456 89.464ZM92.3376 87.64H90.3376V95.56L92.3376 93.464V87.64ZM97.4256 87.08L95.4256 89.176V95H97.4256V87.08ZM106.58 89.464L106.66 87.08L99.652 93.176L99.572 95.56L106.58 89.464ZM101.572 87.64H99.572V95.56L101.572 93.464V87.64ZM106.66 87.08L104.66 89.176V95H106.66V87.08ZM100.612 83.88C100.612 84.2853 100.708 84.6693 100.9 85.032C101.103 85.384 101.396 85.6667 101.78 85.88C102.175 86.0827 102.649 86.184 103.204 86.184C103.769 86.184 104.244 86.0827 104.628 85.88C105.012 85.6667 105.305 85.384 105.508 85.032C105.711 84.6693 105.812 84.2853 105.812 83.88H104.356C104.356 84.0507 104.313 84.216 104.228 84.376C104.153 84.5253 104.031 84.6533 103.86 84.76C103.689 84.856 103.471 84.904 103.204 84.904C102.948 84.904 102.735 84.856 102.564 84.76C102.393 84.6533 102.265 84.5253 102.18 84.376C102.095 84.216 102.052 84.0507 102.052 83.88H100.612ZM62.6512 112.224C63.0139 112.224 63.3445 112.309 63.6432 112.48C63.9419 112.651 64.1765 112.896 64.3472 113.216C64.5179 113.536 64.6032 113.904 64.6032 114.32C64.6032 114.736 64.5179 115.104 64.3472 115.424C64.1765 115.733 63.9419 115.979 63.6432 116.16C63.3445 116.331 63.0139 116.416 62.6512 116.416C62.2779 116.416 61.9419 116.331 61.6432 116.16C61.3445 115.979 61.1045 115.733 60.9232 115.424C60.7525 115.104 60.6672 114.736 60.6672 114.32L58.4272 113.36C58.4272 114.416 58.6085 115.301 58.9712 116.016C59.3445 116.731 59.8459 117.269 60.4752 117.632C61.1152 117.984 61.8405 118.16 62.6512 118.16C63.4619 118.16 64.1712 117.995 64.7792 117.664C65.3979 117.333 65.8779 116.88 66.2192 116.304C66.5605 115.717 66.7312 115.056 66.7312 114.32C66.7312 113.573 66.5605 112.912 66.2192 112.336C65.8779 111.76 65.4139 111.307 64.8272 110.976C64.2405 110.645 63.5579 110.48 62.7792 110.48L62.6512 112.224ZM59.7552 114.32H60.6672C60.6672 113.979 60.7259 113.68 60.8432 113.424C60.9605 113.168 61.1152 112.949 61.3072 112.768C61.4992 112.587 61.7125 112.453 61.9472 112.368C62.1819 112.272 62.4165 112.224 62.6512 112.224L62.7792 110.48C62.3205 110.48 61.9045 110.571 61.5312 110.752C61.1685 110.923 60.8485 111.173 60.5712 111.504C60.3045 111.835 60.1019 112.24 59.9632 112.72C59.8245 113.189 59.7552 113.723 59.7552 114.32ZM58.4272 113.36L60.5072 114.272L60.2352 112.56C60.2352 112.027 60.3045 111.515 60.4432 111.024C60.5925 110.533 60.8485 110.091 61.2112 109.696C61.5845 109.301 62.0965 108.987 62.7472 108.752C63.3339 108.539 63.8565 108.272 64.3152 107.952C64.7845 107.632 65.1632 107.264 65.4512 106.848C65.7392 106.432 65.9099 105.989 65.9632 105.52H63.9632C63.8885 105.904 63.6592 106.251 63.2752 106.56C62.9019 106.859 62.3525 107.152 61.6272 107.44C60.7845 107.76 60.1285 108.192 59.6592 108.736C59.2005 109.28 58.8805 109.936 58.6992 110.704C58.5179 111.472 58.4272 112.357 58.4272 113.36ZM75.3691 112.464L75.4491 110.08L68.4411 116.176L68.3611 118.56L75.3691 112.464ZM70.3611 110.64H68.3611V118.56L70.3611 116.464V110.64ZM75.4491 110.08L73.4491 112.176V118H75.4491V110.08ZM84.8914 110.64H77.8514V115.024C77.8514 115.483 77.7341 115.787 77.4994 115.936C77.2754 116.075 77.0034 116.144 76.6834 116.144V118C77.4621 118 78.0808 117.909 78.5394 117.728C79.0088 117.536 79.3448 117.253 79.5474 116.88C79.7501 116.496 79.8514 116.016 79.8514 115.44V112.528H82.8914V118H84.8914V110.64ZM87.8761 114.784H94.4681C94.4894 114.667 94.5001 114.56 94.5001 114.464C94.5001 114.368 94.5001 114.288 94.5001 114.224C94.5001 113.445 94.3507 112.779 94.0521 112.224C93.7534 111.669 93.3161 111.243 92.7401 110.944C92.1747 110.635 91.4867 110.48 90.6761 110.48C89.9401 110.48 89.2947 110.608 88.7401 110.864C88.1854 111.12 87.7427 111.477 87.4121 111.936C87.0814 112.395 86.8627 112.928 86.7561 113.536C86.7347 113.664 86.7187 113.792 86.7081 113.92C86.6974 114.048 86.6921 114.181 86.6921 114.32C86.6921 115.056 86.8467 115.717 87.1561 116.304C87.4761 116.88 87.9347 117.333 88.5321 117.664C89.1294 117.995 89.8387 118.16 90.6601 118.16C91.3427 118.16 91.9187 118.075 92.3881 117.904C92.8681 117.733 93.2734 117.493 93.6041 117.184C93.9347 116.864 94.2227 116.496 94.4681 116.08L92.6601 115.52C92.5321 115.733 92.3721 115.92 92.1801 116.08C91.9881 116.24 91.7694 116.363 91.5241 116.448C91.2787 116.533 90.9961 116.576 90.6761 116.576C90.3134 116.576 89.9881 116.501 89.7001 116.352C89.4121 116.192 89.1827 115.947 89.0121 115.616C88.8521 115.275 88.7721 114.843 88.7721 114.32L88.8041 113.904C88.8041 113.499 88.8841 113.147 89.0441 112.848C89.2041 112.549 89.4227 112.325 89.7001 112.176C89.9774 112.016 90.2921 111.936 90.6441 111.936C90.9854 111.936 91.2681 112 91.4921 112.128C91.7161 112.256 91.8921 112.437 92.0201 112.672C92.1481 112.907 92.2334 113.184 92.2761 113.504H87.8761V114.784ZM95.1503 110.64V112.384H100.046V110.64H95.1503ZM96.6063 110.96V118H98.6063V110.96H96.6063Z" fill="black"/>
</svg>
