<svg width="159" height="152" viewBox="0 0 159 152" fill="none" xmlns="http://www.w3.org/2000/svg">
<rect width="159" height="152" rx="30" fill="#FF5959"/>
<path d="M21.304 58H42.652V52.42H32.572L38.44 47.164C39.52 46.228 40.396 45.196 41.068 44.068C41.74 42.916 42.076 41.656 42.076 40.288C42.076 39.328 41.872 38.38 41.464 37.444C41.056 36.508 40.444 35.656 39.628 34.888C38.836 34.096 37.84 33.472 36.64 33.016C35.44 32.536 34.06 32.296 32.5 32.296C30.34 32.296 28.504 32.74 26.992 33.628C25.504 34.516 24.388 35.704 23.644 37.192C22.9 38.68 22.528 40.324 22.528 42.124H28.504C28.504 41.212 28.648 40.408 28.936 39.712C29.248 39.016 29.692 38.476 30.268 38.092C30.868 37.708 31.552 37.516 32.32 37.516C32.896 37.516 33.4 37.612 33.832 37.804C34.264 37.972 34.624 38.212 34.912 38.524C35.2 38.812 35.416 39.148 35.56 39.532C35.704 39.916 35.776 40.3 35.776 40.684C35.776 41.356 35.644 41.992 35.38 42.592C35.14 43.168 34.768 43.756 34.264 44.356C33.784 44.956 33.208 45.628 32.536 46.372L21.304 58ZM51.517 45.4C51.517 44.224 51.625 43.156 51.841 42.196C52.057 41.212 52.369 40.384 52.777 39.712C53.185 39.016 53.665 38.488 54.217 38.128C54.793 37.744 55.429 37.552 56.125 37.552C56.821 37.552 57.445 37.744 57.997 38.128C58.573 38.488 59.065 39.016 59.473 39.712C59.881 40.384 60.193 41.212 60.409 42.196C60.625 43.156 60.733 44.224 60.733 45.4C60.733 46.576 60.625 47.656 60.409 48.64C60.193 49.6 59.881 50.428 59.473 51.124C59.065 51.796 58.573 52.324 57.997 52.708C57.445 53.068 56.821 53.248 56.125 53.248C55.429 53.248 54.793 53.068 54.217 52.708C53.665 52.324 53.185 51.796 52.777 51.124C52.369 50.428 52.057 49.6 51.841 48.64C51.625 47.656 51.517 46.576 51.517 45.4ZM45.649 45.4C45.649 48.136 46.081 50.476 46.945 52.42C47.833 54.364 49.069 55.864 50.653 56.92C52.237 57.952 54.061 58.468 56.125 58.468C58.285 58.468 60.145 57.952 61.705 56.92C63.265 55.864 64.465 54.364 65.305 52.42C66.169 50.476 66.601 48.136 66.601 45.4C66.601 42.664 66.169 40.324 65.305 38.38C64.465 36.436 63.265 34.948 61.705 33.916C60.145 32.86 58.285 32.332 56.125 32.332C54.061 32.332 52.237 32.86 50.653 33.916C49.069 34.948 47.833 36.436 46.945 38.38C46.081 40.324 45.649 42.664 45.649 45.4ZM82.281 50.64H74.985V58H77.321V52.736H79.961V58H82.281V50.64ZM83.7561 54.32C83.7561 55.088 83.9375 55.76 84.3001 56.336C84.6628 56.912 85.1641 57.36 85.8041 57.68C86.4441 58 87.1641 58.16 87.9641 58.16C88.7641 58.16 89.4788 58 90.1081 57.68C90.7481 57.36 91.2495 56.912 91.6121 56.336C91.9855 55.76 92.1721 55.088 92.1721 54.32C92.1721 53.5413 91.9855 52.864 91.6121 52.288C91.2495 51.712 90.7481 51.264 90.1081 50.944C89.4788 50.624 88.7641 50.464 87.9641 50.464C87.1641 50.464 86.4441 50.624 85.8041 50.944C85.1641 51.264 84.6628 51.712 84.3001 52.288C83.9375 52.864 83.7561 53.5413 83.7561 54.32ZM86.2361 54.32C86.2361 53.936 86.3161 53.6053 86.4761 53.328C86.6361 53.0507 86.8441 52.8373 87.1001 52.688C87.3561 52.5387 87.6441 52.464 87.9641 52.464C88.2735 52.464 88.5561 52.5387 88.8121 52.688C89.0788 52.8373 89.2868 53.0507 89.4361 53.328C89.5961 53.6053 89.6761 53.936 89.6761 54.32C89.6761 54.704 89.5961 55.0347 89.4361 55.312C89.2868 55.5787 89.0788 55.7867 88.8121 55.936C88.5561 56.0853 88.2735 56.16 87.9641 56.16C87.6441 56.16 87.3561 56.0853 87.1001 55.936C86.8441 55.7867 86.6361 55.5787 86.4761 55.312C86.3161 55.0347 86.2361 54.704 86.2361 54.32ZM94.5536 54.832H101.274C101.295 54.704 101.306 54.5867 101.306 54.48C101.306 54.3627 101.306 54.272 101.306 54.208C101.306 53.4293 101.151 52.7627 100.842 52.208C100.543 51.6533 100.1 51.2267 99.5136 50.928C98.927 50.6293 98.2016 50.48 97.3376 50.48C96.5376 50.48 95.8496 50.608 95.2736 50.864C94.7083 51.12 94.255 51.4773 93.9136 51.936C93.583 52.3947 93.3643 52.928 93.2576 53.536C93.2363 53.664 93.2203 53.792 93.2096 53.92C93.199 54.048 93.1936 54.1813 93.1936 54.32C93.1936 55.056 93.3536 55.7173 93.6736 56.304C94.0043 56.88 94.479 57.3333 95.0976 57.664C95.727 57.9947 96.4843 58.16 97.3696 58.16C98.0843 58.16 98.687 58.0747 99.1776 57.904C99.679 57.7227 100.1 57.472 100.442 57.152C100.783 56.8213 101.076 56.432 101.322 55.984L99.1616 55.456C99.0443 55.6587 98.9003 55.8347 98.7296 55.984C98.559 56.1227 98.3563 56.2293 98.1216 56.304C97.8976 56.3787 97.6363 56.416 97.3376 56.416C97.0283 56.416 96.7403 56.3467 96.4736 56.208C96.2176 56.0693 96.0096 55.8453 95.8496 55.536C95.7003 55.2267 95.6256 54.8213 95.6256 54.32L95.6576 53.936C95.6576 53.5413 95.727 53.2107 95.8656 52.944C96.0043 52.6667 96.191 52.4587 96.4256 52.32C96.671 52.1707 96.959 52.096 97.2896 52.096C97.5776 52.096 97.8176 52.1547 98.0096 52.272C98.2123 52.3787 98.367 52.5333 98.4736 52.736C98.591 52.9387 98.671 53.1893 98.7136 53.488H94.5536V54.832ZM106.237 54.32C107.325 54.3627 108.125 54.224 108.637 53.904C109.159 53.5733 109.421 53.136 109.421 52.592C109.421 52.1867 109.287 51.8293 109.021 51.52C108.765 51.2 108.407 50.9493 107.949 50.768C107.49 50.576 106.967 50.48 106.381 50.48C105.751 50.48 105.202 50.592 104.733 50.816C104.274 51.0293 103.911 51.3333 103.645 51.728C103.389 52.112 103.261 52.5653 103.261 53.088H105.453C105.463 52.9173 105.506 52.768 105.581 52.64C105.655 52.512 105.762 52.4107 105.901 52.336C106.05 52.2613 106.215 52.224 106.397 52.224C106.642 52.224 106.839 52.288 106.989 52.416C107.138 52.5333 107.213 52.6933 107.213 52.896C107.213 53.0987 107.133 53.2693 106.973 53.408C106.823 53.536 106.578 53.6 106.237 53.6V54.32ZM106.349 58.16C106.999 58.16 107.581 58.064 108.093 57.872C108.605 57.68 109.005 57.4133 109.293 57.072C109.591 56.72 109.741 56.3147 109.741 55.856C109.741 55.1947 109.437 54.6827 108.829 54.32C108.221 53.9467 107.357 53.7867 106.237 53.84V54.752C106.514 54.752 106.743 54.7893 106.925 54.864C107.117 54.928 107.255 55.024 107.341 55.152C107.437 55.2693 107.485 55.4187 107.485 55.6C107.485 55.7813 107.437 55.936 107.341 56.064C107.245 56.1813 107.111 56.2773 106.941 56.352C106.77 56.416 106.567 56.448 106.333 56.448C106.023 56.448 105.767 56.368 105.565 56.208C105.362 56.0373 105.218 55.7973 105.133 55.488H102.845C102.93 56.2987 103.271 56.9493 103.869 57.44C104.477 57.92 105.303 58.16 106.349 58.16ZM116.063 53.552L117.823 57.52L120.159 57.024L116.063 50.08L111.967 57.024L114.303 57.52L116.063 53.552ZM118.751 58V59.44H121.023V56.096H111.103V59.44H113.455V58H118.751ZM122.256 54.32C122.256 55.088 122.437 55.76 122.8 56.336C123.163 56.912 123.664 57.36 124.304 57.68C124.944 58 125.664 58.16 126.464 58.16C127.264 58.16 127.979 58 128.608 57.68C129.248 57.36 129.749 56.912 130.112 56.336C130.485 55.76 130.672 55.088 130.672 54.32C130.672 53.5413 130.485 52.864 130.112 52.288C129.749 51.712 129.248 51.264 128.608 50.944C127.979 50.624 127.264 50.464 126.464 50.464C125.664 50.464 124.944 50.624 124.304 50.944C123.664 51.264 123.163 51.712 122.8 52.288C122.437 52.864 122.256 53.5413 122.256 54.32ZM124.736 54.32C124.736 53.936 124.816 53.6053 124.976 53.328C125.136 53.0507 125.344 52.8373 125.6 52.688C125.856 52.5387 126.144 52.464 126.464 52.464C126.773 52.464 127.056 52.5387 127.312 52.688C127.579 52.8373 127.787 53.0507 127.936 53.328C128.096 53.6053 128.176 53.936 128.176 54.32C128.176 54.704 128.096 55.0347 127.936 55.312C127.787 55.5787 127.579 55.7867 127.312 55.936C127.056 56.0853 126.773 56.16 126.464 56.16C126.144 56.16 125.856 56.0853 125.6 55.936C125.344 55.7867 125.136 55.5787 124.976 55.312C124.816 55.0347 124.736 54.704 124.736 54.32ZM132.11 50.64V58H134.43V50.64H132.11ZM137.102 50.64L133.95 53.68L137.47 58H140.318L136.846 53.68L139.998 50.64H137.102ZM35.9027 83.56H40.1427V80.94H35.9027V83.56ZM46.6324 87H58.4924V83.9H52.8924L56.1524 80.98C56.7524 80.46 57.2391 79.8867 57.6124 79.26C57.9858 78.62 58.1724 77.92 58.1724 77.16C58.1724 76.6267 58.0591 76.1 57.8324 75.58C57.6058 75.06 57.2658 74.5867 56.8124 74.16C56.3724 73.72 55.8191 73.3733 55.1524 73.12C54.4858 72.8533 53.7191 72.72 52.8524 72.72C51.6524 72.72 50.6324 72.9667 49.7924 73.46C48.9658 73.9533 48.3458 74.6133 47.9324 75.44C47.5191 76.2667 47.3124 77.18 47.3124 78.18H50.6324C50.6324 77.6733 50.7124 77.2267 50.8724 76.84C51.0458 76.4533 51.2924 76.1533 51.6124 75.94C51.9458 75.7267 52.3258 75.62 52.7524 75.62C53.0724 75.62 53.3524 75.6733 53.5924 75.78C53.8324 75.8733 54.0324 76.0067 54.1924 76.18C54.3524 76.34 54.4724 76.5267 54.5524 76.74C54.6324 76.9533 54.6724 77.1667 54.6724 77.38C54.6724 77.7533 54.5991 78.1067 54.4524 78.44C54.3191 78.76 54.1124 79.0867 53.8324 79.42C53.5658 79.7533 53.2458 80.1267 52.8724 80.54L46.6324 87ZM63.4174 80C63.4174 79.3467 63.4774 78.7533 63.5974 78.22C63.7174 77.6733 63.8908 77.2133 64.1174 76.84C64.3441 76.4533 64.6108 76.16 64.9174 75.96C65.2374 75.7467 65.5908 75.64 65.9774 75.64C66.3641 75.64 66.7108 75.7467 67.0174 75.96C67.3374 76.16 67.6108 76.4533 67.8374 76.84C68.0641 77.2133 68.2374 77.6733 68.3574 78.22C68.4774 78.7533 68.5374 79.3467 68.5374 80C68.5374 80.6533 68.4774 81.2533 68.3574 81.8C68.2374 82.3333 68.0641 82.7933 67.8374 83.18C67.6108 83.5533 67.3374 83.8467 67.0174 84.06C66.7108 84.26 66.3641 84.36 65.9774 84.36C65.5908 84.36 65.2374 84.26 64.9174 84.06C64.6108 83.8467 64.3441 83.5533 64.1174 83.18C63.8908 82.7933 63.7174 82.3333 63.5974 81.8C63.4774 81.2533 63.4174 80.6533 63.4174 80ZM60.1574 80C60.1574 81.52 60.3974 82.82 60.8774 83.9C61.3708 84.98 62.0574 85.8133 62.9374 86.4C63.8174 86.9733 64.8308 87.26 65.9774 87.26C67.1774 87.26 68.2108 86.9733 69.0774 86.4C69.9441 85.8133 70.6108 84.98 71.0774 83.9C71.5574 82.82 71.7974 81.52 71.7974 80C71.7974 78.48 71.5574 77.18 71.0774 76.1C70.6108 75.02 69.9441 74.1933 69.0774 73.62C68.2108 73.0333 67.1774 72.74 65.9774 72.74C64.8308 72.74 63.8174 73.0333 62.9374 73.62C62.0574 74.1933 61.3708 75.02 60.8774 76.1C60.3974 77.18 60.1574 78.48 60.1574 80ZM76.6596 80C76.6596 79.3467 76.7196 78.7533 76.8396 78.22C76.9596 77.6733 77.1329 77.2133 77.3596 76.84C77.5863 76.4533 77.8529 76.16 78.1596 75.96C78.4796 75.7467 78.8329 75.64 79.2196 75.64C79.6063 75.64 79.9529 75.7467 80.2596 75.96C80.5796 76.16 80.8529 76.4533 81.0796 76.84C81.3063 77.2133 81.4796 77.6733 81.5996 78.22C81.7196 78.7533 81.7796 79.3467 81.7796 80C81.7796 80.6533 81.7196 81.2533 81.5996 81.8C81.4796 82.3333 81.3063 82.7933 81.0796 83.18C80.8529 83.5533 80.5796 83.8467 80.2596 84.06C79.9529 84.26 79.6063 84.36 79.2196 84.36C78.8329 84.36 78.4796 84.26 78.1596 84.06C77.8529 83.8467 77.5863 83.5533 77.3596 83.18C77.1329 82.7933 76.9596 82.3333 76.8396 81.8C76.7196 81.2533 76.6596 80.6533 76.6596 80ZM73.3996 80C73.3996 81.52 73.6396 82.82 74.1196 83.9C74.6129 84.98 75.2996 85.8133 76.1796 86.4C77.0596 86.9733 78.0729 87.26 79.2196 87.26C80.4196 87.26 81.4529 86.9733 82.3196 86.4C83.1863 85.8133 83.8529 84.98 84.3196 83.9C84.7996 82.82 85.0396 81.52 85.0396 80C85.0396 78.48 84.7996 77.18 84.3196 76.1C83.8529 75.02 83.1863 74.1933 82.3196 73.62C81.4529 73.0333 80.4196 72.74 79.2196 72.74C78.0729 72.74 77.0596 73.0333 76.1796 73.62C75.2996 74.1933 74.6129 75.02 74.1196 76.1C73.6396 77.18 73.3996 78.48 73.3996 80ZM89.9018 80C89.9018 79.3467 89.9618 78.7533 90.0818 78.22C90.2018 77.6733 90.3751 77.2133 90.6018 76.84C90.8285 76.4533 91.0951 76.16 91.4018 75.96C91.7218 75.7467 92.0751 75.64 92.4618 75.64C92.8485 75.64 93.1951 75.7467 93.5018 75.96C93.8218 76.16 94.0951 76.4533 94.3218 76.84C94.5485 77.2133 94.7218 77.6733 94.8418 78.22C94.9618 78.7533 95.0218 79.3467 95.0218 80C95.0218 80.6533 94.9618 81.2533 94.8418 81.8C94.7218 82.3333 94.5485 82.7933 94.3218 83.18C94.0951 83.5533 93.8218 83.8467 93.5018 84.06C93.1951 84.26 92.8485 84.36 92.4618 84.36C92.0751 84.36 91.7218 84.26 91.4018 84.06C91.0951 83.8467 90.8285 83.5533 90.6018 83.18C90.3751 82.7933 90.2018 82.3333 90.0818 81.8C89.9618 81.2533 89.9018 80.6533 89.9018 80ZM86.6418 80C86.6418 81.52 86.8818 82.82 87.3618 83.9C87.8551 84.98 88.5418 85.8133 89.4218 86.4C90.3018 86.9733 91.3151 87.26 92.4618 87.26C93.6618 87.26 94.6951 86.9733 95.5618 86.4C96.4285 85.8133 97.0951 84.98 97.5618 83.9C98.0418 82.82 98.2818 81.52 98.2818 80C98.2818 78.48 98.0418 77.18 97.5618 76.1C97.0951 75.02 96.4285 74.1933 95.5618 73.62C94.6951 73.0333 93.6618 72.74 92.4618 72.74C91.3151 72.74 90.3018 73.0333 89.4218 73.62C88.5418 74.1933 87.8551 75.02 87.3618 76.1C86.8818 77.18 86.6418 78.48 86.6418 80ZM108.08 73V87H111.46V73H108.08ZM110.16 75.78H112.98C113.473 75.78 113.893 75.8267 114.24 75.92C114.587 76 114.853 76.1467 115.04 76.36C115.227 76.5733 115.32 76.86 115.32 77.22C115.32 77.5933 115.227 77.8867 115.04 78.1C114.853 78.3 114.587 78.4467 114.24 78.54C113.893 78.62 113.473 78.66 112.98 78.66H110.16V81.44H112.98C114.167 81.44 115.173 81.3 116 81.02C116.827 80.7267 117.453 80.2667 117.88 79.64C118.32 79.0133 118.54 78.2067 118.54 77.22C118.54 76.22 118.32 75.4133 117.88 74.8C117.453 74.1733 116.827 73.72 116 73.44C115.173 73.1467 114.167 73 112.98 73H110.16V75.78ZM111.22 85.46H115.46V82.84H111.22V85.46ZM105.68 81.32H109.92V78.7H105.68V81.32ZM105.68 85.46H109.92V82.84H105.68V85.46ZM42.4098 107.808C42.4098 107.605 42.4578 107.435 42.5538 107.296C42.6604 107.157 42.8098 107.051 43.0018 106.976C43.2044 106.891 43.4444 106.848 43.7218 106.848C44.1378 106.848 44.4898 106.901 44.7778 107.008C45.0764 107.104 45.3644 107.253 45.6418 107.456V106.32C45.5351 106.203 45.3538 106.085 45.0978 105.968C44.8524 105.84 44.5591 105.739 44.2178 105.664C43.8871 105.579 43.5351 105.536 43.1618 105.536C42.5218 105.536 41.9618 105.632 41.4818 105.824C41.0018 106.016 40.6284 106.288 40.3618 106.64C40.1058 106.992 39.9778 107.413 39.9778 107.904C39.9778 108.384 40.0898 108.795 40.3138 109.136C40.5484 109.467 40.8684 109.723 41.2738 109.904C41.6791 110.075 42.1378 110.16 42.6498 110.16C43.1618 110.16 43.6204 110.075 44.0258 109.904C44.4418 109.723 44.7671 109.467 45.0018 109.136C45.2471 108.795 45.3698 108.389 45.3698 107.92L45.1138 107.024C45.1138 107.419 45.0391 107.728 44.8898 107.952C44.7404 108.176 44.5378 108.336 44.2818 108.432C44.0364 108.528 43.7644 108.576 43.4658 108.576C43.2844 108.576 43.1084 108.549 42.9378 108.496C42.7778 108.432 42.6498 108.347 42.5538 108.24C42.4578 108.123 42.4098 107.979 42.4098 107.808ZM41.4658 104.912C41.5831 104.837 41.7591 104.752 41.9938 104.656C42.2284 104.549 42.5004 104.459 42.8098 104.384C43.1298 104.309 43.4658 104.272 43.8177 104.272C44.2231 104.272 44.5378 104.368 44.7618 104.56C44.9964 104.741 45.1138 104.987 45.1138 105.296V110H47.4338V104.816C47.4338 104.304 47.2844 103.872 46.9858 103.52C46.6978 103.168 46.2924 102.901 45.7698 102.72C45.2578 102.528 44.6711 102.432 44.0098 102.432C43.3484 102.432 42.7244 102.523 42.1378 102.704C41.5618 102.885 41.0658 103.077 40.6497 103.28L41.4658 104.912ZM53.2729 104.464C53.5822 104.464 53.8649 104.539 54.1209 104.688C54.3875 104.837 54.5955 105.051 54.7449 105.328C54.9049 105.605 54.9849 105.936 54.9849 106.32C54.9849 106.704 54.9049 107.035 54.7449 107.312C54.5849 107.579 54.3769 107.787 54.1209 107.936C53.8649 108.085 53.5769 108.16 53.2569 108.16C52.9475 108.16 52.6595 108.085 52.3929 107.936C52.1369 107.787 51.9289 107.579 51.7689 107.312C51.6089 107.035 51.5289 106.704 51.5289 106.32L48.8569 105.36C48.8569 106.416 49.0435 107.301 49.4169 108.016C49.8009 108.731 50.3235 109.269 50.9849 109.632C51.6569 109.984 52.4142 110.16 53.2569 110.16C54.1209 110.16 54.8622 109.995 55.4809 109.664C56.1102 109.333 56.5955 108.88 56.9369 108.304C57.2889 107.717 57.4649 107.056 57.4649 106.32C57.4649 105.573 57.2942 104.912 56.9529 104.336C56.6222 103.76 56.1529 103.307 55.5449 102.976C54.9475 102.645 54.2542 102.48 53.4649 102.48L53.2729 104.464ZM50.4569 106.32H51.5289C51.5289 106.021 51.5769 105.76 51.6729 105.536C51.7689 105.301 51.8969 105.104 52.0569 104.944C52.2275 104.784 52.4195 104.667 52.6329 104.592C52.8462 104.507 53.0595 104.464 53.2729 104.464L53.4649 102.48C53.0062 102.48 52.5902 102.571 52.2169 102.752C51.8542 102.923 51.5395 103.173 51.2729 103.504C51.0062 103.835 50.8035 104.24 50.6649 104.72C50.5262 105.189 50.4569 105.723 50.4569 106.32ZM48.8569 105.36L51.3689 106.304L50.9689 104.56C50.9689 104.027 51.0382 103.525 51.1769 103.056C51.3262 102.576 51.5822 102.149 51.9449 101.776C52.3182 101.403 52.8302 101.093 53.4809 100.848C54.0675 100.624 54.5902 100.347 55.0489 100.016C55.5182 99.6747 55.8969 99.2907 56.1849 98.864C56.4729 98.4373 56.6435 97.9893 56.6969 97.52H54.3769C54.3022 97.904 54.0675 98.24 53.6729 98.528C53.2889 98.816 52.7342 99.1093 52.0089 99.408C51.1769 99.7493 50.5315 100.197 50.0729 100.752C49.6142 101.296 49.2942 101.952 49.1129 102.72C48.9422 103.477 48.8569 104.357 48.8569 105.36ZM58.5433 106.32C58.5433 107.088 58.7246 107.76 59.0872 108.336C59.4499 108.912 59.9513 109.36 60.5913 109.68C61.2313 110 61.9513 110.16 62.7513 110.16C63.5513 110.16 64.2659 110 64.8953 109.68C65.5353 109.36 66.0366 108.912 66.3993 108.336C66.7726 107.76 66.9593 107.088 66.9593 106.32C66.9593 105.541 66.7726 104.864 66.3993 104.288C66.0366 103.712 65.5353 103.264 64.8953 102.944C64.2659 102.624 63.5513 102.464 62.7513 102.464C61.9513 102.464 61.2313 102.624 60.5913 102.944C59.9513 103.264 59.4499 103.712 59.0872 104.288C58.7246 104.864 58.5433 105.541 58.5433 106.32ZM61.0233 106.32C61.0233 105.936 61.1033 105.605 61.2633 105.328C61.4233 105.051 61.6313 104.837 61.8873 104.688C62.1433 104.539 62.4313 104.464 62.7513 104.464C63.0606 104.464 63.3433 104.539 63.5993 104.688C63.8659 104.837 64.0739 105.051 64.2233 105.328C64.3833 105.605 64.4633 105.936 64.4633 106.32C64.4633 106.704 64.3833 107.035 64.2233 107.312C64.0739 107.579 63.8659 107.787 63.5993 107.936C63.3433 108.085 63.0606 108.16 62.7513 108.16C62.4313 108.16 62.1433 108.085 61.8873 107.936C61.6313 107.787 61.4233 107.579 61.2633 107.312C61.1033 107.035 61.0233 106.704 61.0233 106.32ZM69.1648 107.024H75.1168V105.216H69.1648V107.024ZM74.0288 102.64V110H76.3488V102.64H74.0288ZM68.4128 102.64V110H70.7488V102.64H68.4128ZM79.1845 106.832H85.9045C85.9258 106.704 85.9365 106.587 85.9365 106.48C85.9365 106.363 85.9365 106.272 85.9365 106.208C85.9365 105.429 85.7818 104.763 85.4725 104.208C85.1738 103.653 84.7312 103.227 84.1445 102.928C83.5578 102.629 82.8325 102.48 81.9685 102.48C81.1685 102.48 80.4805 102.608 79.9045 102.864C79.3392 103.12 78.8858 103.477 78.5445 103.936C78.2138 104.395 77.9952 104.928 77.8885 105.536C77.8672 105.664 77.8512 105.792 77.8405 105.92C77.8298 106.048 77.8245 106.181 77.8245 106.32C77.8245 107.056 77.9845 107.717 78.3045 108.304C78.6352 108.88 79.1098 109.333 79.7285 109.664C80.3578 109.995 81.1152 110.16 82.0005 110.16C82.7152 110.16 83.3178 110.075 83.8085 109.904C84.3098 109.723 84.7312 109.472 85.0725 109.152C85.4138 108.821 85.7072 108.432 85.9525 107.984L83.7925 107.456C83.6752 107.659 83.5312 107.835 83.3605 107.984C83.1898 108.123 82.9872 108.229 82.7525 108.304C82.5285 108.379 82.2672 108.416 81.9685 108.416C81.6592 108.416 81.3712 108.347 81.1045 108.208C80.8485 108.069 80.6405 107.845 80.4805 107.536C80.3312 107.227 80.2565 106.821 80.2565 106.32L80.2885 105.936C80.2885 105.541 80.3578 105.211 80.4965 104.944C80.6352 104.667 80.8218 104.459 81.0565 104.32C81.3018 104.171 81.5898 104.096 81.9205 104.096C82.2085 104.096 82.4485 104.155 82.6405 104.272C82.8432 104.379 82.9978 104.533 83.1045 104.736C83.2218 104.939 83.3018 105.189 83.3445 105.488H79.1845V106.832ZM94.5156 110H96.9476L94.7236 102.08L93.5076 104.96L94.5156 110ZM91.2676 107.904L91.7476 110.496L94.8836 105.344L94.7236 102.08L91.2676 107.904ZM91.7476 110.496L92.2276 107.904L88.8196 102.08L88.6596 105.344L91.7476 110.496ZM86.5956 110H89.0276L90.0356 104.96L88.8196 102.08L86.5956 110ZM98.9033 106.832H105.623C105.645 106.704 105.655 106.587 105.655 106.48C105.655 106.363 105.655 106.272 105.655 106.208C105.655 105.429 105.501 104.763 105.191 104.208C104.893 103.653 104.45 103.227 103.863 102.928C103.277 102.629 102.551 102.48 101.687 102.48C100.887 102.48 100.199 102.608 99.6233 102.864C99.0579 103.12 98.6046 103.477 98.2633 103.936C97.9326 104.395 97.7139 104.928 97.6073 105.536C97.5859 105.664 97.5699 105.792 97.5592 105.92C97.5486 106.048 97.5433 106.181 97.5433 106.32C97.5433 107.056 97.7033 107.717 98.0233 108.304C98.3539 108.88 98.8286 109.333 99.4473 109.664C100.077 109.995 100.834 110.16 101.719 110.16C102.434 110.16 103.037 110.075 103.527 109.904C104.029 109.723 104.45 109.472 104.791 109.152C105.133 108.821 105.426 108.432 105.671 107.984L103.511 107.456C103.394 107.659 103.25 107.835 103.079 107.984C102.909 108.123 102.706 108.229 102.471 108.304C102.247 108.379 101.986 108.416 101.687 108.416C101.378 108.416 101.09 108.347 100.823 108.208C100.567 108.069 100.359 107.845 100.199 107.536C100.05 107.227 99.9753 106.821 99.9753 106.32L100.007 105.936C100.007 105.541 100.077 105.211 100.215 104.944C100.354 104.667 100.541 104.459 100.775 104.32C101.021 104.171 101.309 104.096 101.639 104.096C101.927 104.096 102.167 104.155 102.359 104.272C102.562 104.379 102.717 104.533 102.823 104.736C102.941 104.939 103.021 105.189 103.063 105.488H98.9033V106.832ZM107.93 107.024H113.882V105.216H107.93V107.024ZM112.794 102.64V110H115.114V102.64H112.794ZM107.178 102.64V110H109.514V102.64H107.178ZM116.158 102.64V104.64H121.326V102.64H116.158ZM117.582 102.96V110H119.902V102.96H117.582Z" fill="black"/>
</svg>
