<svg width="180" height="55" viewBox="0 0 180 55" fill="none" xmlns="http://www.w3.org/2000/svg">
<path fill-rule="evenodd" clip-rule="evenodd" d="M1.80547 28.7174L2.14094 28.2422L2.52931 27.7688L2.96904 27.2978L3.45847 26.8298L3.99584 26.3652L4.57923 25.9047L5.20673 25.4488L5.8763 24.9977L6.58582 24.552L7.33311 24.1121L8.11581 23.6783L8.93117 23.2508L9.7763 22.83L10.648 22.416L11.5428 22.0089L12.4572 21.6089L13.3876 21.2158L14.3302 20.8297L15.2812 20.4503L16.2368 20.0776L17.1934 19.7111L18.1472 19.3505L19.0946 18.9954L20.0321 18.6454L20.9566 18.2999L21.8649 17.9582L22.754 17.6198L23.6213 17.2841L24.4643 16.9501L25.2809 16.6173L26.0696 16.2849L26.829 15.9521L27.5582 15.6182L28.2568 15.2825L28.9249 14.9444L29.5628 14.6031L30.1713 14.2581L30.7516 13.909L31.3053 13.5552L31.8343 13.1964L32.3407 12.8322L32.8271 12.4626L33.2963 12.0873L33.7513 11.7065L34.1952 11.3201L34.6315 10.9283L35.0636 10.5315L35.4951 10.1301L35.9297 9.72455L36.371 9.31543L36.8226 8.90347L37.2882 8.48942L37.7712 8.07415L38.2749 7.65862L38.8026 7.24384L39.3572 6.83087L39.9417 6.42085L40.5584 6.01494L41.2097 5.61436L41.8976 5.22033L42.6239 4.83408L43.3898 4.45687L44.1965 4.08993L45.0448 3.73444L45.935 3.39162L46.8672 3.06261L47.8413 2.74847L48.8565 2.45024L49.912 2.16887L51.0067 1.90524L52.1391 1.66011L53.3074 1.4342L54.5097 1.22806L55.7437 1.04219L57.0069 0.87694L58.2968 0.732555L59.6107 0.609158L60.9456 0.50675L62.2985 0.425221L63.6665 0.364322L65.0464 0.323691L66.4351 0.302853L67.8296 0.30123L69.2268 0.318108L70.6236 0.352634L72.0172 0.403842L73.4047 0.470603L74.7833 0.551738L76.1506 0.645899L77.5041 0.751692L78.8418 0.86763L80.1616 0.992181L81.462 1.12374L82.7416 1.26073L83.9993 1.40149L85.2343 1.5444L86.446 1.68787L87.6343 1.83032L88.7993 1.97023L89.9413 2.10613L91.0608 2.23667L92.1588 2.36054L93.2364 2.47653L94.2949 2.58356L95.3358 2.68064L96.3607 2.76687L97.3715 2.8415L98.3701 2.90392L99.3586 2.95362L100.339 2.99026L101.313 3.01364L102.284 3.0237L103.253 3.02054L104.223 3.00437L105.195 2.97561L106.171 2.93475L107.154 2.88247L108.144 2.81955L109.144 2.74693L110.154 2.66561L111.175 2.57677L112.209 2.48164L113.256 2.38155L114.316 2.27791L115.389 2.17219L116.474 2.06592L117.572 1.96065L118.682 1.85798L119.802 1.75946L120.931 1.66672L122.068 1.5813L123.21 1.50474L124.355 1.43855L125.502 1.38414L126.648 1.34287L127.789 1.31604L128.924 1.3048L130.049 1.31026L131.162 1.33337L132.259 1.37499L133.337 1.43583L134.393 1.51647L135.425 1.61737L136.429 1.73882L137.402 1.88098L138.342 2.04384L139.247 2.2273L140.114 2.43104L140.94 2.65468L141.725 2.89763L142.467 3.15921L143.163 3.43862L143.815 3.73493L144.42 4.0471L144.979 4.37401L145.491 4.71443L145.958 5.06711L146.379 5.43072L146.757 5.80399L147.091 6.18562L147.383 6.57437L147.635 6.96898L147.848 7.36825L148.024 7.77097L148.166 8.17603L148.274 8.5823L148.352 8.98875L148.402 9.39437L148.426 9.79824L148.426 10.1995L148.405 10.5973L148.365 10.991L148.309 11.3799L148.239 11.7634L148.157 12.1411L148.065 12.5126L147.966 12.8775L147.861 13.2355L147.754 13.5863L147.645 13.9296L147.538 14.2653L147.435 14.5931L147.337 14.913L147.247 15.2248L147.168 15.5286L147.1 15.8242L147.048 16.1118L147.012 16.3914L146.994 16.6631L146.996 16.9272L147.021 17.1839L147.07 17.4334L147.144 17.6759L147.245 17.9119L147.374 18.1417L147.532 18.3657L147.721 18.5843L147.941 18.7981L148.193 19.0074L148.477 19.2129L148.795 19.415L149.146 19.6144L149.53 19.8116L149.947 20.0072L150.397 20.2018L150.879 20.396L151.393 20.5905L151.938 20.7857L152.512 20.9824L153.116 21.1811L153.747 21.3824L154.404 21.5869L155.085 21.795L155.789 22.0075L156.514 22.2246L157.258 22.4471L158.02 22.6751L158.796 22.9093L159.586 23.15L160.386 23.3976L161.194 23.6523L162.009 23.9144L162.827 24.1843L163.647 24.4621L164.466 24.748L165.281 25.0422L166.091 25.3447L166.893 25.6556L167.685 25.9749L168.464 26.3027L169.229 26.6388L169.976 26.9833L170.706 27.3359L171.416 27.6967L172.104 28.0655L172.77 28.442L173.413 28.8262L174.031 29.2179L174.622 29.6168L175.187 30.0229L175.724 30.4357L176.231 30.8552L176.708 31.2809L177.153 31.7126L177.565 32.15L177.941 32.5926L178.281 33.04L178.582 33.4918L178.842 33.9473L179.06 34.406L179.233 34.8673L179.359 35.3305L179.437 35.7949L179.466 36.2598L179.445 36.7246L179.372 37.1886L179.247 37.651L179.069 38.1111L178.838 38.5683L178.554 39.0219L178.218 39.4711L177.829 39.9154L177.388 40.3542L176.895 40.7869L176.353 41.213L175.762 41.6319L175.124 42.0433L174.439 42.4468L173.711 42.8419L172.94 43.2286L172.128 43.6064L171.279 43.9754L170.393 44.3353L169.474 44.6862L168.522 45.0281L167.542 45.361L166.535 45.6851L165.503 46.0006L164.45 46.3078L163.376 46.6069L162.284 46.8982L161.177 47.1823L160.057 47.4594L158.924 47.73L157.782 47.9946L156.632 48.2537L155.475 48.5076L154.312 48.757L153.145 49.0022L151.975 49.2438L150.802 49.4821L149.628 49.7176L148.453 49.9507L147.276 50.1817L146.099 50.411L144.921 50.6386L143.743 50.8649L142.563 51.09L141.383 51.3139L140.2 51.5367L139.016 51.7582L137.829 51.9784L136.638 52.197L135.443 52.4138L134.244 52.6283L133.038 52.8399L131.826 53.0478L130.606 53.2512L129.378 53.4491L128.141 53.6404L126.894 53.824L125.637 53.9986L124.37 54.1631L123.092 54.316L121.804 54.4563L120.507 54.5825L119.2 54.6936L117.885 54.7884L116.564 54.8659L115.236 54.9252L113.905 54.9655L112.571 54.9861L111.238 54.9866L109.905 54.9666L108.577 54.9256L107.254 54.8636L105.939 54.7803L104.634 54.6759L103.342 54.5503L102.064 54.4038L100.803 54.2368L99.5601 54.0496L98.3384 53.843L97.1393 53.6175L95.9645 53.3739L94.8157 53.1132L93.6943 52.8364L92.6016 52.5446L91.5385 52.239L90.5059 51.9208L89.5045 51.5914L88.5344 51.2522L87.596 50.9048L86.6889 50.5506L85.8128 50.1912L84.9671 49.8282L84.1506 49.4632L83.3623 49.0977L82.6007 48.7334L81.8641 48.3719L81.1505 48.0146L80.4579 47.6631L79.7838 47.3189L79.1257 46.9831L78.4809 46.6572L77.8466 46.3424L77.2197 46.0397L76.5974 45.7502L75.9764 45.4748L75.3535 45.2141L74.7257 44.969L74.0898 44.7398L73.4427 44.5269L72.7814 44.3307L72.103 44.1511L71.4048 43.9882L70.6843 43.8419L69.939 43.7117L69.1668 43.5972L68.3659 43.4979L67.5346 43.413L66.6716 43.3418L65.776 43.2833L64.847 43.2365L63.8843 43.2002L62.8879 43.1732L61.8581 43.1543L60.7955 43.1422L59.7008 43.1355L58.5747 43.1333L57.4182 43.1342L56.2324 43.1371L55.0184 43.1409L53.7777 43.1445L52.5118 43.147L51.2221 43.1471L49.9104 43.1441L48.5785 43.1369L47.2283 43.1246L45.8617 43.1065L44.4806 43.0817L43.0871 43.0495L41.6831 43.0093L40.2705 42.9604L38.851 42.9023L37.4265 42.8347L35.9986 42.7571L34.5693 42.669L33.1406 42.5701L31.7145 42.46L30.2931 42.3383L28.8787 42.2048L27.4736 42.0592L26.0799 41.9011L24.7003 41.7303L23.337 41.5467L21.9927 41.35L20.6696 41.1401L19.3705 40.9169L18.0978 40.6804L16.854 40.4306L15.6417 40.1674L14.4632 39.8909L13.321 39.6013L12.2174 39.2987L11.1548 38.9832L10.1354 38.6552L9.16119 38.3149L8.23427 37.9627L7.35654 37.5989L6.52981 37.2239L5.75574 36.8381L5.03581 36.4421L4.37145 36.0363L3.76387 35.6213L3.21416 35.1976L2.72326 34.7658L2.29188 34.3267L1.92061 33.8807L1.60994 33.4285L1.36005 32.9709L1.17107 32.5084L1.04286 32.0418L0.975185 31.5718L0.967629 31.099L1.01959 30.6241L1.13031 30.1479L1.29892 29.6709L1.52437 29.1939L1.80547 28.7174Z" fill="url(#paint0_linear_3_35)"/>
<defs>
<linearGradient id="paint0_linear_3_35" x1="30.9365" y1="62.0655" x2="29.0485" y2="11.5398" gradientUnits="userSpaceOnUse">
<stop stop-color="white"/>
<stop offset="1" stop-color="white" stop-opacity="0"/>
</linearGradient>
</defs>
</svg>
