<svg width="260" height="92" viewBox="0 0 260 92" fill="none" xmlns="http://www.w3.org/2000/svg">
<path fill-rule="evenodd" clip-rule="evenodd" d="M1.80478 47.2657L2.28761 46.4779L2.84709 45.6935L3.48105 44.9135L4.18707 44.1388L4.9626 43.3703L5.80482 42.6088L6.71104 41.8551L7.67826 41.1099L8.70343 40.3739L9.78337 39.6478L10.9147 38.932L12.0934 38.2271L13.3153 37.5334L14.5757 36.8513L15.8697 36.1809L17.1922 35.5222L18.5378 34.8753L19.9012 34.2401L21.2769 33.6161L22.6593 33.0031L24.043 32.4006L25.4228 31.8079L26.7934 31.2243L28.1498 30.649L29.4872 30.081L30.8012 29.5195L32.0874 28.9632L33.342 28.4111L34.5614 27.8619L35.7427 27.3144L36.8834 26.7673L37.9816 26.2194L39.0361 25.6694L40.0463 25.1163L41.0121 24.5588L41.9342 23.9959L42.8137 23.4267L43.6524 22.8503L44.4523 22.266L45.2164 21.6731L45.9478 21.0713L46.6501 20.4601L47.3275 19.8395L47.9841 19.2095L48.6248 18.5702L49.2543 17.922L49.8777 17.2653L50.5003 16.6009L51.1273 15.9297L51.764 15.2526L52.4156 14.5708L53.0874 13.8857L53.7845 13.1986L54.5115 12.5113L55.2734 11.8254L56.0743 11.1427L56.9184 10.4652L57.8094 9.79466L58.7505 9.13327L59.7447 8.48301L60.7945 7.84598L61.902 7.22425L63.0686 6.6199L64.2955 6.03489L65.5833 5.47124L66.9321 4.93085L68.3415 4.41548L69.8108 3.92688L71.3387 3.46659L72.9235 3.03609L74.563 2.63662L76.2546 2.26934L77.9957 1.93521L79.7828 1.635L81.6125 1.36927L83.4811 1.13844L85.3845 0.94268L87.3185 0.781966L89.2788 0.656095L91.2611 0.564642L93.2608 0.506971L95.2734 0.482272L97.2945 0.489571L99.3196 0.52765L101.344 0.59507L103.365 0.690201L105.376 0.811153L107.375 0.955944L109.357 1.12231L111.32 1.30792L113.259 1.51028L115.173 1.72683L117.059 1.95491L118.914 2.19185L120.738 2.43492L122.529 2.68139L124.287 2.92863L126.01 3.17402L127.699 3.415L129.355 3.64916L130.979 3.87423L132.571 4.08806L134.134 4.28865L135.669 4.47421L137.178 4.64309L138.664 4.79381L140.13 4.92514L141.578 5.03609L143.011 5.12582L144.432 5.19377L145.844 5.23963L147.251 5.26331L148.656 5.265L150.061 5.24506L151.47 5.2042L152.885 5.14326L154.308 5.06338L155.743 4.96586L157.191 4.85226L158.655 4.72429L160.135 4.58389L161.632 4.43311L163.149 4.27419L164.684 4.10946L166.238 3.94137L167.811 3.77244L169.402 3.60527L171.01 3.44251L172.632 3.28672L174.268 3.14061L175.915 3.00672L177.57 2.88761L179.23 2.78577L180.891 2.70351L182.551 2.6431L184.205 2.60666L185.85 2.59611L187.481 2.61325L189.094 2.65965L190.684 2.73671L192.247 2.84561L193.778 2.98726L195.274 3.16243L196.73 3.37157L198.142 3.61491L199.506 3.89246L200.819 4.20398L202.076 4.54898L203.276 4.92675L204.415 5.33634L205.491 5.77661L206.503 6.24618L207.449 6.74355L208.329 7.26695L209.141 7.81452L209.886 8.38424L210.565 8.97399L211.179 9.58162L211.728 10.205L212.215 10.8419L212.642 11.4904L213.01 12.1484L213.322 12.8138L213.58 13.4847L213.788 14.1592L213.948 14.8355L214.064 15.5119L214.139 16.1867L214.176 16.8584L214.179 17.5256L214.151 18.1869L214.096 18.8412L214.018 19.4875L213.919 20.1247L213.803 20.7522L213.673 21.3692L213.532 21.9753L213.383 22.5698L213.229 23.1523L213.075 23.7224L212.922 24.2797L212.774 24.8241L212.635 25.3553L212.507 25.8731L212.394 26.3775L212.298 26.8686L212.224 27.3464L212.174 27.8111L212.15 28.2628L212.156 28.702L212.193 29.1289L212.266 29.5441L212.374 29.9479L212.522 30.341L212.711 30.724L212.942 31.0976L213.217 31.4625L213.538 31.8195L213.904 32.1694L214.318 32.5131L214.78 32.8515L215.29 33.1855L215.848 33.5162L216.454 33.8444L217.108 34.1712L217.808 34.4976L218.554 34.8246L219.345 35.1531L220.179 35.4843L221.055 35.819L221.971 36.1582L222.925 36.5029L223.914 36.8539L224.936 37.2122L225.988 37.5785L227.069 37.9537L228.174 38.3384L229.301 38.7334L230.447 39.1392L231.608 39.5565L232.781 39.9859L233.964 40.4276L235.152 40.8822L236.342 41.35L237.531 41.8313L238.715 42.3263L239.891 42.835L241.056 43.3577L242.206 43.8944L243.337 44.4449L244.448 45.0093L245.534 45.5874L246.594 46.1791L247.625 46.7841L248.626 47.4021L249.594 48.033L250.528 48.6764L251.426 49.3321L252.287 49.9997L253.108 50.6789L253.889 51.3692L254.627 52.0703L255.322 52.7816L255.97 53.5027L256.569 54.2328L257.118 54.9715L257.614 55.7179L258.054 56.4712L258.434 57.2305L258.753 57.9948L259.006 58.763L259.193 59.5341L259.309 60.3068L259.355 61.0801L259.327 61.8529L259.225 62.6238L259.047 63.3918L258.792 64.1556L258.461 64.9141L258.053 65.6662L257.568 66.4108L257.008 67.1468L256.372 67.8733L255.661 68.5892L254.879 69.2937L254.025 69.9861L253.102 70.6656L252.113 71.3315L251.06 71.9834L249.945 72.6207L248.772 73.2432L247.544 73.8506L246.262 74.4428L244.932 75.0196L243.556 75.5812L242.138 76.1277L240.681 76.6594L239.188 77.1767L237.662 77.6798L236.108 78.1695L234.528 78.6461L232.926 79.1105L231.304 79.5632L229.665 80.0051L228.011 80.4369L226.345 80.8594L224.67 81.2733L222.987 81.6796L221.297 82.079L219.603 82.4723L217.905 82.8602L216.205 83.2434L214.503 83.6226L212.799 83.9983L211.095 84.3709L209.39 84.741L207.683 85.1089L205.975 85.4747L204.266 85.8386L202.554 86.2005L200.839 86.5604L199.119 86.918L197.395 87.273L195.665 87.6248L193.928 87.9729L192.182 88.316L190.427 88.653L188.661 88.9825L186.882 89.3028L185.09 89.612L183.284 89.9083L181.464 90.1897L179.628 90.4541L177.777 90.6993L175.912 90.9232L174.032 91.1238L172.139 91.2992L170.234 91.4475L168.319 91.5669L166.396 91.6559L164.467 91.7133L162.534 91.7381L160.601 91.7293L158.669 91.6864L156.743 91.6088L154.826 91.4962L152.919 91.3484L151.027 91.1653L149.153 90.9472L147.3 90.6945L145.471 90.4077L143.669 90.0877L141.897 89.7353L140.157 89.3517L138.453 88.9384L136.786 88.4967L135.159 88.0284L133.573 87.5353L132.03 87.0195L130.531 86.483L129.077 85.9281L127.669 85.3572L126.306 84.7728L124.989 84.1774L123.716 83.5735L122.488 82.9638L121.302 82.351L120.157 81.7377L119.05 81.1266L117.98 80.5201L116.943 79.921L115.937 79.3316L114.957 78.7543L114.001 78.1913L113.064 77.6448L112.143 77.1168L111.232 76.609L110.328 76.1232L109.426 75.6607L108.521 75.2229L107.61 74.8107L106.686 74.425L105.747 74.0665L104.787 73.7354L103.802 73.432L102.789 73.1562L101.744 72.9076L100.663 72.6858L99.5429 72.4899L98.3814 72.3191L97.176 72.172L95.9247 72.0475L94.6261 71.9438L93.2793 71.8592L91.8837 71.792L90.4393 71.74L88.9467 71.7012L87.4065 71.6733L85.8198 71.6545L84.1877 71.6427L82.5115 71.6358L80.7928 71.6322L79.0334 71.6298L77.2352 71.627L75.4003 71.6219L73.5311 71.613L71.6299 71.5985L69.6995 71.577L67.7425 71.547L65.7616 71.507L63.7598 71.4559L61.7398 71.3924L59.7047 71.3154L57.6569 71.224L55.5991 71.1173L53.5339 70.9947L51.4639 70.8553L49.3917 70.6986L47.3203 70.5239L45.2525 70.3306L43.1916 70.1182L41.1406 69.8861L39.1029 69.6338L37.0819 69.3609L35.0811 69.0671L33.1039 68.752L31.154 68.4153L29.235 68.0568L27.3505 67.6765L25.5042 67.2741L23.6997 66.8497L21.9406 66.4034L20.2306 65.9353L18.573 65.4455L16.9714 64.9344L15.429 64.4023L13.9491 63.8496L12.5347 63.2768L11.1887 62.6845L9.91399 62.0732L8.71307 61.4437L7.58839 60.7968L6.54208 60.1331L5.5763 59.4536L4.69271 58.7592L3.89292 58.0508L3.17833 57.3294L2.54997 56.596L2.00866 55.8518L1.55514 55.0977L1.18967 54.335L0.912471 53.5647L0.723297 52.7879L0.621855 52.0059L0.607511 51.2197L0.679418 50.4305L0.836485 49.6394L1.07743 48.8475L1.40078 48.0559L1.80478 47.2657Z" fill="url(#paint0_linear_3_34)"/>
<defs>
<linearGradient id="paint0_linear_3_34" x1="44.2654" y1="102.924" x2="41.0784" y2="18.902" gradientUnits="userSpaceOnUse">
<stop stop-color="white"/>
<stop offset="1" stop-color="white" stop-opacity="0"/>
</linearGradient>
</defs>
</svg>
