<svg width="344" height="94" viewBox="0 0 344 94" fill="none" xmlns="http://www.w3.org/2000/svg">
<path fill-rule="evenodd" clip-rule="evenodd" d="M341.384 50.724L340.705 51.4854L339.925 52.2405L339.046 52.9884L338.071 53.7283L337.005 54.4594L335.851 55.1811L334.611 55.8925L333.292 56.5932L331.896 57.2825L330.427 57.96L328.891 58.6253L327.293 59.278L325.638 59.9179L323.932 60.545L322.182 61.1591L320.395 61.7605L318.578 62.3494L316.738 62.9261L314.882 63.4911L313.018 64.045L311.152 64.5885L309.292 65.1225L307.445 65.6477L305.617 66.1653L303.815 66.6763L302.044 67.182L300.31 67.6834L298.618 68.1819L296.973 68.6789L295.379 69.1757L293.839 69.6736L292.355 70.174L290.929 70.6781L289.561 71.187L288.253 71.7019L287.002 72.2239L285.807 72.7537L284.666 73.2922L283.576 73.84L282.534 74.3977L281.534 74.9655L280.572 75.5436L279.643 76.132L278.741 76.7306L277.86 77.3389L276.993 77.9566L276.134 78.5828L275.276 79.2166L274.411 79.8571L273.534 80.5031L272.636 81.1531L271.711 81.8056L270.753 82.459L269.755 83.1116L268.711 83.7615L267.615 84.4066L266.462 85.0451L265.247 85.6748L263.966 86.2935L262.615 86.8992L261.191 87.4896L259.691 88.0627L258.113 88.6163L256.457 89.1485L254.721 89.6572L252.904 90.1405L251.009 90.5967L249.035 91.0241L246.985 91.4213L244.861 91.7868L242.666 92.1195L240.403 92.4183L238.076 92.6824L235.69 92.9112L233.249 93.1042L230.758 93.2612L228.222 93.3821L225.648 93.4671L223.04 93.5167L220.405 93.5313L217.748 93.5118L215.076 93.4592L212.394 93.3746L209.708 93.2594L207.024 93.1151L204.348 92.9436L201.684 92.7468L199.038 92.527L196.415 92.2863L193.82 92.0275L191.255 91.7529L188.726 91.4652L186.234 91.1672L183.783 90.8616L181.374 90.5511L179.009 90.2385L176.689 89.9265L174.414 89.6176L172.183 89.3143L169.997 89.0191L167.853 88.7341L165.75 88.4615L163.685 88.2031L161.657 87.9606L159.662 87.7356L157.697 87.5295L155.759 87.3434L153.843 87.1781L151.945 87.0344L150.062 86.9127L148.19 86.8132L146.323 86.7359L144.459 86.6805L142.594 86.6464L140.722 86.6329L138.842 86.6391L136.948 86.6636L135.039 86.7052L133.112 86.7622L131.163 86.8329L129.192 86.9152L127.197 87.0071L125.177 87.1064L123.132 87.2107L121.061 87.3176L118.965 87.4246L116.846 87.5292L114.704 87.6287L112.543 87.7208L110.365 87.8028L108.174 87.8723L105.972 87.9269L103.764 87.9642L101.554 87.982L99.3485 87.9782L97.1512 87.9509L94.9679 87.8984L92.8044 87.819L90.6664 87.7113L88.5598 87.5741L86.4907 87.4065L84.4647 87.2076L82.4878 86.9769L80.5656 86.7141L78.7035 86.4192L76.9067 86.0922L75.18 85.7335L73.5277 85.3438L71.9537 84.9239L70.4616 84.4748L69.0543 83.9977L67.734 83.4941L66.5025 82.9655L65.3607 82.4137L64.3092 81.8405L63.3477 81.248L62.4751 80.6382L61.6902 80.0131L60.991 79.375L60.3754 78.7258L59.8408 78.0674L59.3842 77.402L59.0024 76.7313L58.6918 76.0573L58.4486 75.3815L58.2686 74.7059L58.1475 74.0319L58.0808 73.3609L58.064 72.6946L58.0923 72.034L58.1609 71.3803L58.2653 70.7347L58.4007 70.0979L58.5627 69.4709L58.747 68.8541L58.9495 68.2483L59.166 67.6537L59.3923 67.0709L59.6241 66.5001L59.8571 65.9416L60.087 65.3957L60.3095 64.8625L60.5202 64.342L60.7148 63.8342L60.8893 63.3392L61.0394 62.8567L61.1611 62.3865L61.2505 61.9284L61.3038 61.4821L61.3174 61.0471L61.288 60.623L61.2122 60.2093L61.0872 59.8054L60.91 59.4105L60.6782 59.0241L60.3895 58.6455L60.0419 58.2737L59.6339 57.908L59.164 57.5476L58.6312 57.1915L58.0347 56.8388L57.3741 56.4885L56.6496 56.1399L55.8612 55.7917L55.0096 55.4432L54.0959 55.0933L53.1213 54.741L52.0874 54.3854L50.9961 54.0257L49.8498 53.6608L48.6508 53.2899L47.402 52.9121L46.1064 52.5268L44.7672 52.1329L43.3879 51.73L41.9723 51.3173L40.5242 50.8941L39.0475 50.4599L37.5465 50.0143L36.0255 49.5566L34.4887 49.0867L32.9408 48.6041L31.386 48.1086L29.8291 47.5999L28.2745 47.0779L26.7268 46.5426L25.1905 45.9939L23.6701 45.4318L22.17 44.8565L20.6947 44.2682L19.2483 43.6669L17.8343 43.053L16.4562 42.4267L15.1167 41.7883L13.8186 41.1382L12.5642 40.4765L11.3559 39.8038L10.1957 39.1203L9.08585 38.4264L8.02837 37.7226L7.02543 37.0093L6.07928 36.287L5.19232 35.5562L4.36715 34.8176L3.60658 34.0718L2.9137 33.3195L2.29187 32.5616L1.7448 31.799L1.27647 31.0328L0.890744 30.264L0.591212 29.4938L0.38113 28.7233L0.263414 27.9538L0.240611 27.1865L0.314887 26.4226L0.488011 25.6633L0.761338 24.9099L1.13581 24.1635L1.61192 23.4252L2.18978 22.6963L2.86902 21.9777L3.64887 21.2706L4.52814 20.5758L5.50522 19.8942L6.57813 19.2267L7.74451 18.574L9.00165 17.9367L10.3465 17.3153L11.7758 16.7103L13.2859 16.122L14.873 15.5507L16.5331 14.9964L18.2619 14.4593L20.0552 13.9391L21.9085 13.4359L23.8173 12.9491L25.7771 12.4786L27.7835 12.0237L29.832 11.584L31.9182 11.1587L34.0379 10.7473L36.1871 10.349L38.362 9.96292L40.5588 9.58824L42.7742 9.22412L45.0051 8.86966L47.2486 8.52398L49.5023 8.18622L51.7639 7.85552L54.0314 7.53106L56.3034 7.21206L58.5785 6.8978L60.8558 6.58762L63.1346 6.28094L65.4146 5.97725L67.6957 5.67615L69.9781 5.37733L72.2623 5.08059L74.5487 4.78584L76.8384 4.4931L79.1322 4.2025L81.4312 3.91431L83.7366 3.6289L86.0497 3.34679L88.3721 3.06878L90.7055 2.79592L93.0513 2.52947L95.4114 2.27095L97.7872 2.022L100.18 1.78446L102.591 1.56025L105.021 1.35142L107.47 1.16002L109.938 0.988148L112.425 0.837879L114.929 0.711222L117.45 0.610093L119.985 0.536282L122.533 0.491408L125.09 0.476893L127.653 0.493921L130.219 0.543421L132.784 0.626103L135.345 0.742526L137.898 0.893089L140.438 1.07802L142.96 1.29739L145.462 1.55105L147.939 1.8387L150.386 2.15984L152.8 2.51377L155.176 2.89962L157.511 3.31633L159.801 3.76264L162.043 4.23712L164.234 4.7382L166.371 5.26411L168.452 5.81296L170.475 6.38271L172.438 6.97121L174.341 7.57617L176.183 8.19524L177.963 8.82598L179.682 9.46589L181.342 10.1124L182.943 10.763L184.487 11.4151L185.977 12.0661L187.416 12.7135L188.807 13.3548L190.154 13.9876L191.461 14.6097L192.733 15.2187L193.975 15.8126L195.192 16.3895L196.39 16.9475L197.574 17.485L198.75 18.0006L199.925 18.493L201.105 18.9611L202.295 19.404L203.501 19.8212L204.731 20.2121L205.989 20.5766L207.281 20.9147L208.612 21.2265L209.987 21.5126L211.411 21.7736L212.888 22.0104L214.422 22.224L216.014 22.4158L217.669 22.587L219.387 22.7394L221.171 22.8746L223.02 22.9946L224.934 23.1014L226.913 23.197L228.956 23.2835L231.061 23.3629L233.226 23.4372L235.451 23.5081L237.731 23.5775L240.066 23.6472L242.453 23.7189L244.888 23.7941L247.368 23.8746L249.89 23.9617L252.451 24.0569L255.047 24.1616L257.674 24.2769L260.328 24.4042L263.006 24.5444L265.704 24.6986L268.417 24.8675L271.143 25.0519L273.878 25.2524L276.618 25.4696L279.361 25.7041L282.101 25.9563L284.836 26.2269L287.561 26.5161L290.272 26.8244L292.964 27.1522L295.633 27.4997L298.274 27.8672L300.883 28.2548L303.455 28.6628L305.984 29.0911L308.467 29.5399L310.898 30.0089L313.272 30.4981L315.585 31.0073L317.832 31.5362L320.008 32.0845L322.109 32.6519L324.131 33.2377L326.068 33.8415L327.917 34.4627L329.675 35.1006L331.337 35.7545L332.901 36.4237L334.362 37.1073L335.719 37.8043L336.968 38.514L338.107 39.2353L339.134 39.9672L340.048 40.7087L340.846 41.4588L341.528 42.2163L342.094 42.9801L342.542 43.7492L342.873 44.5224L343.086 45.2986L343.183 46.0767L343.164 46.8555L343.031 47.6341L342.784 48.4112L342.426 49.1859L341.959 49.9572L341.384 50.724Z" fill="url(#paint0_linear_3_33)"/>
<defs>
<linearGradient id="paint0_linear_3_33" x1="171.938" y1="24.8627" x2="171.891" y2="108.164" gradientUnits="userSpaceOnUse">
<stop stop-color="white"/>
<stop offset="1" stop-color="white" stop-opacity="0"/>
</linearGradient>
</defs>
</svg>
