<svg width="255" height="91" viewBox="0 0 255 91" fill="none" xmlns="http://www.w3.org/2000/svg">
<path fill-rule="evenodd" clip-rule="evenodd" d="M252.741 49.0199L252.238 49.7608L251.659 50.4958L251.008 51.2238L250.286 51.9441L249.496 52.656L248.641 53.3587L247.723 54.0516L246.745 54.7341L245.711 55.4056L244.624 56.0657L243.486 56.7139L242.303 57.35L241.077 57.9737L239.814 58.585L238.518 59.1837L237.195 59.7701L235.849 60.3443L234.487 60.9067L233.112 61.4577L231.732 61.998L230.35 62.5282L228.973 63.049L227.606 63.5614L226.252 64.0663L224.917 64.5648L223.606 65.058L222.322 65.5471L221.069 66.0334L219.851 66.5181L218.671 67.0026L217.53 67.4881L216.431 67.976L215.375 68.4674L214.363 68.9635L213.394 69.4653L212.467 69.974L211.582 70.4902L210.737 71.0149L209.93 71.5485L209.158 72.0917L208.417 72.6447L207.705 73.2077L207.017 73.7807L206.349 74.3635L205.696 74.9558L205.054 75.5572L204.417 76.1668L203.781 76.7839L203.141 77.4075L202.491 78.0364L201.825 78.6692L201.14 79.3045L200.43 79.9408L199.691 80.5762L198.918 81.209L198.106 81.8374L197.252 82.4592L196.352 83.0726L195.403 83.6753L194.403 84.2654L193.348 84.8408L192.237 85.3994L191.069 85.9392L189.843 86.4581L188.557 86.9542L187.212 87.4258L185.809 87.8711L184.347 88.2885L182.83 88.6765L181.257 89.0338L179.632 89.3593L177.957 89.6518L176.234 89.9107L174.467 90.1353L172.66 90.3251L170.816 90.48L168.939 90.5998L167.034 90.6848L165.103 90.7353L163.153 90.7518L161.186 90.7353L159.208 90.6865L157.223 90.6066L155.235 90.4969L153.248 90.359L151.267 90.1946L149.296 90.0056L147.338 89.7942L145.396 89.5625L143.475 89.3131L141.577 89.0484L139.705 88.7709L137.861 88.4834L136.047 88.1884L134.264 87.8886L132.514 87.5868L130.797 87.2854L129.113 86.987L127.462 86.6942L125.844 86.409L124.257 86.1338L122.701 85.8706L121.173 85.6211L119.672 85.3872L118.195 85.1702L116.741 84.9715L115.306 84.7922L113.888 84.6332L112.484 84.4952L111.09 84.3785L109.704 84.2834L108.323 84.2099L106.943 84.1577L105.562 84.1262L104.177 84.1147L102.785 84.1224L101.383 84.148L99.97 84.1901L98.5432 84.2472L97.101 84.3177L95.642 84.3995L94.1652 84.4906L92.6698 84.5889L91.1556 84.6922L89.6225 84.7979L88.0712 84.9039L86.5023 85.0074L84.9172 85.1061L83.3175 85.1976L81.7052 85.2793L80.0827 85.3488L78.4528 85.4038L76.8185 85.442L75.1831 85.4613L73.5502 85.4596L71.9238 85.435L70.3078 85.3859L68.7064 85.3106L67.1239 85.2078L65.5647 85.0763L64.0332 84.9151L62.5338 84.7235L61.0707 84.5009L59.6481 84.2471L58.27 83.9619L56.9403 83.6456L55.6624 83.2984L54.4397 82.9209L53.275 82.514L52.171 82.0786L51.1297 81.616L50.1528 81.1275L49.2417 80.6146L48.3971 80.079L47.6193 79.5226L46.908 78.9473L46.2627 78.3551L45.6822 77.748L45.1652 77.1281L44.7101 76.4974L44.315 75.8577L43.9776 75.2111L43.6956 74.5593L43.4663 73.9041L43.2869 73.2473L43.1542 72.5904L43.0652 71.9351L43.0165 71.2828L43.0046 70.6348L43.0261 69.9925L43.0775 69.3568L43.1553 68.7289L43.2561 68.1097L43.3766 67.4998L43.5136 66.8999L43.664 66.3106L43.8248 65.7323L43.9928 65.1654L44.1649 64.6101L44.3379 64.0669L44.5085 63.5359L44.6737 63.0172L44.8301 62.5109L44.9746 62.017L45.1042 61.5354L45.2157 61.0661L45.3062 60.6088L45.3728 60.1634L45.4127 59.7293L45.4232 59.3064L45.4017 58.894L45.346 58.4918L45.2538 58.0991L45.123 57.7153L44.9517 57.3398L44.7384 56.9718L44.4815 56.6107L44.1798 56.2555L43.8323 55.9054L43.4382 55.5596L42.9969 55.2172L42.5083 54.8772L41.9723 54.5388L41.389 54.201L40.759 53.8628L40.083 53.5234L39.3619 53.1817L38.5969 52.8369L37.7895 52.488L36.9412 52.1342L36.0541 51.7747L35.13 51.4085L34.1713 51.0349L33.1804 50.6531L32.1598 50.2625L31.1123 49.8625L30.0408 49.4523L28.9481 49.0314L27.8375 48.5994L26.712 48.1558L25.5749 47.7002L24.4295 47.2323L23.2791 46.7518L22.1271 46.2586L20.9768 45.7524L19.8316 45.2332L18.6949 44.7011L17.57 44.1559L16.4602 43.5978L15.3687 43.027L14.2985 42.4437L13.2525 41.848L12.2329 41.2402L11.242 40.6207L10.2817 39.9896L9.35375 39.3474L8.45992 38.6943L7.60177 38.0307L6.78085 37.357L5.99871 36.6735L5.25696 35.9808L4.55725 35.2793L3.90136 34.5696L3.29122 33.8521L2.7289 33.1275L2.21668 32.3967L1.75707 31.6603L1.35281 30.9192L1.00682 30.1746L0.721986 29.4273L0.500953 28.6787L0.346132 27.9297L0.25968 27.1816L0.243482 26.4355L0.29914 25.6926L0.427962 24.9542L0.63095 24.2213L0.908798 23.4952L1.26188 22.7769L1.69026 22.0676L2.19368 21.3683L2.77156 20.68L3.42302 20.0036L4.14688 19.34L4.94165 18.69L5.80559 18.0542L6.7367 17.4334L7.73274 16.828L8.79125 16.2384L9.90957 15.6651L11.0849 15.1081L12.3142 14.5677L13.5943 14.0439L14.9222 13.5365L16.2945 13.0455L17.7078 12.5705L19.159 12.1112L20.6445 11.6671L22.1612 11.2377L23.7058 10.8224L25.2752 10.4205L26.8664 10.0313L28.4766 9.65391L30.103 9.28764L31.7432 8.93161L33.3949 8.58496L35.0559 8.24684L36.7244 7.91641L38.3987 7.59284L40.0775 7.27533L41.7595 6.96313L43.4438 6.65554L45.1298 6.3519L46.8168 6.05167L48.5048 5.75435L50.1936 5.45954L51.8833 5.16695L53.5743 4.87639L55.267 4.58775L56.9621 4.30106L58.6602 4.01647L60.3623 3.7342L62.069 3.45462L63.7815 3.17825L65.5008 2.90587L67.2282 2.63847L68.9648 2.37731L70.712 2.12383L72.4709 1.87965L74.2423 1.64654L76.0272 1.4264L77.8259 1.22117L79.6389 1.03289L81.466 0.863577L83.3069 0.715253L85.1608 0.589872L87.0268 0.4893L88.9035 0.415278L90.7891 0.369383L92.6817 0.352999L94.579 0.367283L96.4785 0.413137L98.3774 0.491258L100.273 0.602191L102.162 0.746329L104.042 0.9239L105.909 1.13496L107.761 1.37939L109.594 1.6569L111.405 1.96699L113.191 2.30901L114.95 2.68209L116.678 3.08521L118.373 3.51715L120.032 3.97654L121.653 4.46183L123.235 4.97131L124.774 5.50315L126.271 6.05537L127.724 6.62586L129.132 7.21242L130.494 7.81275L131.812 8.42448L133.084 9.04518L134.312 9.67238L135.496 10.3036L136.639 10.9363L137.741 11.5679L138.806 12.1962L139.835 12.8185L140.831 13.4327L141.798 14.0364L142.739 14.6275L143.658 15.2039L144.558 15.7637L145.444 16.3053L146.32 16.8269L147.191 17.3272L148.06 17.8049L148.932 18.259L149.813 18.6887L150.706 19.0932L151.616 19.4723L152.546 19.8256L153.502 20.1531L154.487 20.4552L155.505 20.7322L156.559 20.9847L157.652 21.2136L158.787 21.42L159.966 21.605L161.19 21.7701L162.462 21.9167L163.782 22.0466L165.151 22.1617L166.568 22.2638L168.032 22.355L169.544 22.4373L171.102 22.5127L172.705 22.5829L174.352 22.6499L176.04 22.7154L177.768 22.7811L179.535 22.8486L181.337 22.9197L183.173 22.9957L185.04 23.0781L186.935 23.1685L188.857 23.2679L190.801 23.3778L192.766 23.4992L194.748 23.6332L196.744 23.7807L198.752 23.9425L200.77 24.1194L202.794 24.3119L204.823 24.5207L206.852 24.7463L208.881 24.9891L210.905 25.2497L212.922 25.5285L214.928 25.8259L216.921 26.1423L218.896 26.4778L220.851 26.8328L222.781 27.2074L224.685 27.6019L226.557 28.0161L228.394 28.4502L230.193 28.9041L231.95 29.3777L233.662 29.8708L235.324 30.3831L236.935 30.9144L238.489 31.4641L239.985 32.032L241.418 32.6174L242.787 33.2198L244.087 33.8385L245.317 34.4729L246.474 35.1222L247.555 35.7856L248.559 36.4622L249.482 37.1511L250.325 37.8515L251.085 38.5623L251.76 39.2825L252.351 40.0111L252.855 40.747L253.273 41.4893L253.604 42.2367L253.848 42.9883L254.005 43.7428L254.076 44.4993L254.062 45.2567L253.962 46.0138L253.779 46.7697L253.513 47.5234L253.167 48.2737L252.741 49.0199Z" fill="url(#paint0_linear_3_2)"/>
<defs>
<linearGradient id="paint0_linear_3_2" x1="127.338" y1="24.0235" x2="127.375" y2="105.023" gradientUnits="userSpaceOnUse">
<stop stop-color="white"/>
<stop offset="1" stop-color="white" stop-opacity="0"/>
</linearGradient>
</defs>
</svg>
